<svg width="147" height="48" viewBox="0 0 147 48" fill="none" xmlns="http://www.w3.org/2000/svg">
<path d="M24.0001 1.91992V15.3599H17.2801C13.5793 15.3599 10.5601 12.3407 10.5601 8.63992C10.5601 4.93912 13.5793 1.91992 17.2801 1.91992H24.0001ZM24.0001 17.2799V30.7199H17.2801C13.5793 30.7199 10.5601 27.7007 10.5601 23.9999C10.5601 20.2991 13.5793 17.2799 17.2801 17.2799H24.0001ZM24.0001 32.6399V39.3599C24.0001 43.0607 20.9809 46.0799 17.2801 46.0799C13.5793 46.0799 10.5601 43.0607 10.5601 39.3599C10.5601 35.6591 13.5793 32.6399 17.2801 32.6399H24.0001ZM39.3601 8.63992C39.3601 12.3407 36.3409 15.3599 32.6401 15.3599H25.9201V1.91992H32.6401C36.3409 1.91992 39.3601 4.93912 39.3601 8.63992ZM32.6401 17.2799C30.8578 17.2799 29.1485 17.9879 27.8883 19.2482C26.6281 20.5084 25.9201 22.2177 25.9201 23.9999C25.9201 25.7822 26.6281 27.4914 27.8883 28.7517C29.1485 30.0119 30.8578 30.7199 32.6401 30.7199C34.4223 30.7199 36.1316 30.0119 37.3918 28.7517C38.6521 27.4914 39.3601 25.7822 39.3601 23.9999C39.3601 22.2177 38.6521 20.5084 37.3918 19.2482C36.1316 17.9879 34.4223 17.2799 32.6401 17.2799Z" fill="#3E3E3E"/>
<path d="M66.0085 34.5V14.1364H79.054V17.2287H69.6974V22.7571H78.1591V25.8494H69.6974V34.5H66.0085ZM82.2557 34.5V19.2273H85.8551V34.5H82.2557ZM84.0653 17.0597C83.4953 17.0597 83.0047 16.8707 82.5938 16.4929C82.1828 16.1084 81.9773 15.6477 81.9773 15.1108C81.9773 14.5672 82.1828 14.1065 82.5938 13.7287C83.0047 13.3442 83.4953 13.152 84.0653 13.152C84.642 13.152 85.1326 13.3442 85.5369 13.7287C85.9479 14.1065 86.1534 14.5672 86.1534 15.1108C86.1534 15.6477 85.9479 16.1084 85.5369 16.4929C85.1326 16.8707 84.642 17.0597 84.0653 17.0597ZM96.1985 40.5455C94.9059 40.5455 93.7956 40.3698 92.8675 40.0185C91.9395 39.6738 91.1938 39.2098 90.6303 38.6264C90.0669 38.0431 89.6758 37.3968 89.457 36.6875L92.6985 35.902C92.8443 36.2003 93.0565 36.4953 93.3349 36.7869C93.6133 37.0852 93.9878 37.3305 94.4585 37.5227C94.9357 37.7216 95.5356 37.821 96.2582 37.821C97.279 37.821 98.1242 37.5724 98.7937 37.0753C99.4632 36.5848 99.7979 35.776 99.7979 34.6491V31.7557H99.619C99.4334 32.1269 99.1616 32.508 98.8036 32.8991C98.4523 33.2902 97.985 33.6184 97.4016 33.8835C96.8249 34.1487 96.0991 34.2812 95.2241 34.2812C94.0508 34.2812 92.9869 34.0062 92.0323 33.456C91.0844 32.8991 90.3287 32.0705 89.7653 30.9702C89.2085 29.8632 88.93 28.4777 88.93 26.8139C88.93 25.1368 89.2085 23.7216 89.7653 22.5682C90.3287 21.4081 91.0877 20.5298 92.0423 19.9332C92.9968 19.33 94.0607 19.0284 95.234 19.0284C96.1289 19.0284 96.8647 19.1809 97.4414 19.4858C98.0247 19.7841 98.4888 20.1454 98.8335 20.5696C99.1781 20.9872 99.44 21.3816 99.619 21.7528H99.8178V19.2273H103.368V34.7486C103.368 36.0545 103.056 37.1349 102.433 37.9901C101.81 38.8452 100.958 39.4848 99.8775 39.9091C98.797 40.3333 97.5707 40.5455 96.1985 40.5455ZM96.2283 31.4574C96.9906 31.4574 97.6403 31.2718 98.1772 30.9006C98.7141 30.5294 99.1218 29.9957 99.4002 29.2997C99.6786 28.6037 99.8178 27.7685 99.8178 26.794C99.8178 25.8329 99.6786 24.991 99.4002 24.2685C99.1284 23.5459 98.7241 22.9858 98.1871 22.5881C97.6568 22.1837 97.0039 21.9815 96.2283 21.9815C95.4263 21.9815 94.7567 22.1903 94.2198 22.608C93.6829 23.0256 93.2785 23.599 93.0067 24.3281C92.735 25.0507 92.5991 25.8726 92.5991 26.794C92.5991 27.7287 92.735 28.5473 93.0067 29.25C93.2852 29.946 93.6928 30.4896 94.2298 30.8807C94.7733 31.2652 95.4395 31.4574 96.2283 31.4574ZM107.056 34.5V19.2273H110.497V21.8224H110.676C110.994 20.9474 111.521 20.2647 112.257 19.7741C112.993 19.277 113.871 19.0284 114.892 19.0284C115.926 19.0284 116.797 19.2803 117.507 19.7841C118.223 20.2812 118.726 20.9607 119.018 21.8224H119.177C119.515 20.974 120.085 20.2978 120.887 19.794C121.696 19.2836 122.654 19.0284 123.761 19.0284C125.166 19.0284 126.313 19.4725 127.201 20.3608C128.09 21.2491 128.534 22.545 128.534 24.2486V34.5H124.924V24.8054C124.924 23.8575 124.672 23.1648 124.169 22.7273C123.665 22.2831 123.048 22.0611 122.319 22.0611C121.451 22.0611 120.771 22.3329 120.281 22.8764C119.797 23.4134 119.555 24.1127 119.555 24.9744V34.5H116.025V24.6562C116.025 23.8674 115.787 23.2377 115.309 22.767C114.839 22.2964 114.222 22.0611 113.46 22.0611C112.943 22.0611 112.472 22.1937 112.048 22.4588C111.624 22.7173 111.286 23.0852 111.034 23.5625C110.782 24.0331 110.656 24.5833 110.656 25.2131V34.5H107.056ZM136.58 34.8082C135.612 34.8082 134.741 34.6359 133.965 34.2912C133.196 33.9399 132.586 33.4228 132.136 32.7401C131.692 32.0573 131.469 31.2154 131.469 30.2145C131.469 29.3527 131.629 28.6402 131.947 28.0767C132.265 27.5133 132.699 27.0625 133.249 26.7244C133.799 26.3864 134.419 26.1312 135.109 25.9588C135.805 25.7798 136.524 25.6506 137.266 25.571C138.161 25.4782 138.887 25.3954 139.444 25.3224C140.001 25.2429 140.405 25.1236 140.657 24.9645C140.915 24.7988 141.045 24.5436 141.045 24.1989V24.1392C141.045 23.3902 140.823 22.8101 140.379 22.3991C139.934 21.9882 139.295 21.7827 138.46 21.7827C137.578 21.7827 136.879 21.9749 136.362 22.3594C135.851 22.7438 135.506 23.1979 135.327 23.7216L131.967 23.2443C132.232 22.3163 132.669 21.5407 133.279 20.9176C133.889 20.2879 134.635 19.8172 135.516 19.5057C136.398 19.1875 137.372 19.0284 138.44 19.0284C139.175 19.0284 139.908 19.1146 140.637 19.2869C141.366 19.4593 142.032 19.7443 142.636 20.142C143.239 20.5331 143.723 21.0668 144.087 21.7429C144.459 22.419 144.644 23.2642 144.644 24.2784V34.5H141.184V32.402H141.065C140.846 32.8262 140.538 33.224 140.14 33.5952C139.749 33.9598 139.255 34.2547 138.658 34.4801C138.068 34.6989 137.376 34.8082 136.58 34.8082ZM137.515 32.1634C138.237 32.1634 138.864 32.0208 139.394 31.7358C139.924 31.4441 140.332 31.0597 140.617 30.5824C140.909 30.1051 141.055 29.5848 141.055 29.0213V27.2216C140.942 27.3144 140.75 27.4006 140.478 27.4801C140.213 27.5597 139.915 27.6293 139.583 27.6889C139.252 27.7486 138.924 27.8016 138.599 27.848C138.274 27.8944 137.992 27.9342 137.754 27.9673C137.217 28.0402 136.736 28.1596 136.312 28.3253C135.888 28.491 135.553 28.723 135.308 29.0213C135.062 29.313 134.94 29.6908 134.94 30.1548C134.94 30.8177 135.182 31.3182 135.665 31.6562C136.149 31.9943 136.766 32.1634 137.515 32.1634Z" fill="#3E3E3E"/>
</svg>
