<svg width="38" height="38" viewBox="0 0 38 38" fill="none" xmlns="http://www.w3.org/2000/svg">
<path d="M0 0.468399V0C12.1078 0 21.9231 9.81529 21.9231 21.9231C9.96915 21.9231 0.249311 12.3599 0 0.468399Z" fill="#32D583"/>
<path d="M0.468399 38L0 38C-5.29248e-07 25.8922 9.81529 16.0769 21.9231 16.0769C21.9231 28.0309 12.3599 37.7507 0.468399 38Z" fill="#32D583"/>
<path d="M38 37.5316L38 38C25.8922 38 16.0769 28.1847 16.0769 16.0769C28.0309 16.0769 37.7507 25.6401 38 37.5316Z" fill="#32D583"/>
<path d="M37.5316 -2.04744e-08L38 0C38 12.1078 28.1847 21.9231 16.0769 21.9231C16.0769 9.96915 25.6401 0.24931 37.5316 -2.04744e-08Z" fill="#32D583"/>
</svg>
