<svg width="25" height="25" viewBox="0 0 25 25" fill="none" xmlns="http://www.w3.org/2000/svg">
<path d="M17.1251 8.47705C18.9446 8.47705 20.6896 9.19628 21.9762 10.4765C23.2628 11.7568 23.9856 13.4931 23.9856 15.3037V23.268H19.412V15.3037C19.412 14.7002 19.171 14.1214 18.7422 13.6946C18.3133 13.2679 17.7316 13.0281 17.1251 13.0281C16.5186 13.0281 15.937 13.2679 15.5081 13.6946C15.0792 14.1214 14.8383 14.7002 14.8383 15.3037V23.268H10.2646V15.3037C10.2646 13.4931 10.9874 11.7568 12.274 10.4765C13.5606 9.19628 15.3056 8.47705 17.1251 8.47705V8.47705Z" stroke="white" stroke-width="2" stroke-linecap="round" stroke-linejoin="round"/>
<path d="M5.69087 9.61475H1.11719V23.268H5.69087V9.61475Z" stroke="white" stroke-width="2" stroke-linecap="round" stroke-linejoin="round"/>
<path d="M3.40403 6.20148C4.66701 6.20148 5.69087 5.18268 5.69087 3.92593C5.69087 2.66919 4.66701 1.65039 3.40403 1.65039C2.14104 1.65039 1.11719 2.66919 1.11719 3.92593C1.11719 5.18268 2.14104 6.20148 3.40403 6.20148Z" stroke="white" stroke-width="2" stroke-linecap="round" stroke-linejoin="round"/>
</svg>
