<svg width="18" height="19" viewBox="0 0 18 19" fill="none" xmlns="http://www.w3.org/2000/svg">
<path d="M9.88004 2.28121C13.06 2.68121 15.55 5.17121 15.95 8.35121C16.01 8.86121 16.44 9.23121 16.94 9.23121C16.98 9.23121 17.02 9.23121 17.06 9.22121C17.61 9.15121 18 8.65121 17.93 8.10121C17.42 4.01121 14.21 0.801211 10.12 0.291211C9.57004 0.231211 9.07004 0.621211 9.01004 1.17121C8.94004 1.72121 9.33004 2.22121 9.88004 2.28121ZM10.26 4.39121C9.73004 4.25121 9.18004 4.57121 9.04004 5.11121C8.90004 5.65121 9.22004 6.19121 9.76004 6.33121C10.81 6.60121 11.63 7.42121 11.91 8.48121C12.03 8.93121 12.43 9.23121 12.88 9.23121C12.96 9.23121 13.05 9.22121 13.13 9.20121C13.66 9.06121 13.98 8.51121 13.85 7.98121C13.38 6.21121 12.01 4.84121 10.26 4.39121ZM16.23 12.4912L13.69 12.2012C13.08 12.1312 12.48 12.3412 12.05 12.7712L10.21 14.6112C7.38004 13.1712 5.06004 10.8612 3.62004 8.02121L5.47004 6.17121C5.90004 5.74121 6.11004 5.14121 6.04004 4.53121L5.75004 2.01121C5.63004 1.00121 4.78004 0.241211 3.76004 0.241211H2.03004C0.900041 0.241211 -0.0399593 1.18121 0.0300407 2.31121C0.560041 10.8512 7.39004 17.6712 15.92 18.2012C17.05 18.2712 17.99 17.3312 17.99 16.2012V14.4712C18 13.4612 17.24 12.6112 16.23 12.4912Z" fill="#F6F6F6"/>
</svg>
