<svg width="544" height="429" viewBox="0 0 544 429" fill="none" xmlns="http://www.w3.org/2000/svg">
<path d="M230.492 15.7547C227.337 15.747 224.774 18.2996 224.766 21.4554C224.766 21.4643 224.766 21.4719 224.766 21.4808V31.4444H236.218V21.4808C236.225 18.3251 233.673 15.7623 230.517 15.7547C230.509 15.7547 230.501 15.7547 230.492 15.7547ZM230.492 24.1276C229.494 24.1276 228.685 23.3183 228.685 22.3207C228.685 21.3231 229.494 20.5138 230.492 20.5138C231.489 20.5138 232.299 21.3231 232.299 22.3207C232.299 23.3183 231.489 24.1276 230.492 24.1276Z" fill="#E0E0E0"/>
<path d="M465.878 15.7547C462.723 15.747 460.16 18.2996 460.152 21.4554C460.152 21.4643 460.152 21.4719 460.152 21.4808V31.4444H471.604V21.4808C471.611 18.3251 469.059 15.7623 465.903 15.7547C465.894 15.7547 465.887 15.7547 465.878 15.7547ZM465.878 24.1276C464.88 24.1276 464.071 23.3183 464.071 22.3207C464.071 21.3231 464.88 20.5138 465.878 20.5138C466.875 20.5138 467.685 21.3231 467.685 22.3207C467.685 23.3183 466.875 24.1276 465.878 24.1276Z" fill="#E0E0E0"/>
<path d="M198.085 27.627H498.272V199.807H198.085V27.627Z" fill="#EBEBEB"/>
<path d="M206.355 35.8981H490.002V191.536H206.355V35.8981Z" fill="#F5F5F5"/>
<path d="M192.537 193.966H503.845V207.048H192.537V193.966Z" fill="#F0F0F0"/>
<path d="M293.779 63.2566H240.34V152.331H456.004V63.2566H293.779ZM414.182 107.157H374.904V93.7963H414.195L414.182 107.157ZM414.182 121.791H374.904V108.43H414.195L414.182 121.791ZM414.182 136.425H374.904V123.063H414.195L414.182 136.425ZM256.257 123.063H292.507V136.425H256.244L256.257 123.063ZM256.257 108.43H292.507V121.791H256.244L256.257 108.43ZM256.257 93.7963H292.507V107.157H256.244L256.257 93.7963ZM256.257 79.1627H292.507V92.5238H256.244L256.257 79.1627ZM373.632 107.157H334.354V93.7963H373.632V107.157ZM373.632 121.791H334.354V108.43H373.632V121.791ZM293.779 108.43H333.069V121.791H293.779V108.43ZM333.069 107.157H293.779V93.7963H333.069V107.157ZM293.779 123.063H333.069V136.425H293.779V123.063ZM334.342 123.063H373.619V136.425H334.354L334.342 123.063ZM373.619 92.5238H293.779V79.1627H373.619V92.5238ZM241.612 64.5291H292.507V77.8902H241.612V64.5291ZM241.612 79.1627H254.972V92.5238H241.612V79.1627ZM241.612 93.7963H254.972V107.157H241.612V93.7963ZM241.612 108.43H254.972V121.791H241.612V108.43ZM241.612 123.063H254.972V136.425H241.612V123.063ZM254.972 151.058H241.612V137.697H254.972V151.058ZM292.507 151.058H256.244V137.697H292.507V151.058ZM333.069 151.058H293.779V137.697H333.069V151.058ZM373.619 151.058H334.354V137.697H373.632L373.619 151.058ZM414.182 151.058H374.904V137.697H414.195L414.182 151.058ZM454.732 151.058H415.467V137.697H454.745L454.732 151.058ZM454.732 136.425H415.467V123.063H454.745L454.732 136.425ZM454.732 121.791H415.467V108.43H454.745L454.732 121.791ZM454.732 107.157H415.467V93.7963H454.745L454.732 107.157ZM454.732 92.5238H374.904V79.1627H454.745L454.732 92.5238ZM374.892 77.8902H293.779V64.5291H454.732V77.8902H374.892Z" fill="#E0E0E0"/>
<path d="M42.4756 133.04H71.1036V373.514H42.4756V133.04Z" fill="#E0E0E0"/>
<path d="M67.9736 133.04H148.336V373.514H67.9736V133.04Z" fill="#EBEBEB"/>
<path d="M76.1676 141.222H140.154V205.215H76.1676V141.222Z" fill="#FAFAFA"/>
<path d="M125.471 178.875H90.8506C89.8811 178.882 89.0897 178.101 89.082 177.131C89.082 177.128 89.082 177.123 89.082 177.119C89.082 176.149 89.8684 175.363 90.8379 175.363C90.8417 175.363 90.8468 175.363 90.8506 175.363H125.471C126.441 175.363 127.227 176.149 127.227 177.119C127.227 178.088 126.441 178.875 125.471 178.875Z" fill="#E0E0E0"/>
<path d="M125.471 185.912H90.8506C89.8734 185.912 89.082 185.12 89.082 184.143C89.082 183.173 89.8684 182.387 90.8379 182.387C90.8417 182.387 90.8468 182.387 90.8506 182.387H125.471C126.441 182.387 127.227 183.173 127.227 184.143C127.235 185.113 126.454 185.904 125.484 185.912C125.48 185.912 125.475 185.912 125.471 185.912Z" fill="#E0E0E0"/>
<path d="M125.471 192.936H90.8506C89.8811 192.943 89.0897 192.162 89.082 191.192C89.082 191.189 89.082 191.183 89.082 191.18C89.082 190.21 89.8684 189.424 90.8379 189.424C90.8417 189.424 90.8468 189.424 90.8506 189.424H125.471C126.441 189.424 127.227 190.21 127.227 191.18C127.227 192.149 126.441 192.936 125.471 192.936Z" fill="#E0E0E0"/>
<path d="M114.975 165.895H101.335L97.7468 162.294V154.608L101.335 151.007H114.975L118.575 154.608V162.294L114.975 165.895Z" fill="#EBEBEB"/>
<path d="M76.1676 211.349H140.154V275.342H76.1676V211.349Z" fill="#FAFAFA"/>
<path d="M125.471 249.04H90.8506C89.8811 249.047 89.0897 248.266 89.082 247.296C89.082 247.293 89.082 247.287 89.082 247.284C89.082 246.314 89.8684 245.528 90.8379 245.528C90.8417 245.528 90.8468 245.528 90.8506 245.528H125.471C126.441 245.528 127.227 246.314 127.227 247.284C127.227 248.253 126.441 249.04 125.471 249.04Z" fill="#E0E0E0"/>
<path d="M125.471 256.026H90.8506C89.8811 256.033 89.0897 255.252 89.082 254.282C89.082 254.279 89.082 254.274 89.082 254.27C89.082 253.3 89.8684 252.514 90.8379 252.514C90.8417 252.514 90.8468 252.514 90.8506 252.514H125.471C126.441 252.514 127.227 253.3 127.227 254.27C127.227 255.239 126.441 256.026 125.471 256.026Z" fill="#E0E0E0"/>
<path d="M125.471 263.037H90.8506C89.8811 263.045 89.0897 262.263 89.082 261.294C89.082 261.29 89.082 261.285 89.082 261.281C89.082 260.311 89.8684 259.525 90.8379 259.525C90.8417 259.525 90.8468 259.525 90.8506 259.525H125.471C126.441 259.525 127.227 260.311 127.227 261.281C127.227 262.251 126.441 263.037 125.471 263.037Z" fill="#E0E0E0"/>
<path d="M114.975 236.009H101.335L97.7468 232.408V224.735L101.335 221.134H114.975L118.575 224.735V232.408L114.975 236.009Z" fill="#EBEBEB"/>
<path d="M76.1676 281.463H140.154V345.456H76.1676V281.463Z" fill="#FAFAFA"/>
<path d="M125.471 319.116H90.8506C89.8811 319.123 89.0897 318.342 89.082 317.372C89.082 317.368 89.082 317.363 89.082 317.36C89.082 316.39 89.8684 315.604 90.8379 315.604C90.8417 315.604 90.8468 315.604 90.8506 315.604H125.471C126.441 315.604 127.227 316.39 127.227 317.36C127.227 318.329 126.441 319.116 125.471 319.116Z" fill="#E0E0E0"/>
<path d="M125.471 326.152H90.8506C89.8811 326.16 89.0897 325.379 89.082 324.409C89.082 324.405 89.082 324.4 89.082 324.396C89.082 323.419 89.8734 322.628 90.8506 322.628H125.471C126.441 322.628 127.227 323.414 127.227 324.384C127.227 324.388 127.227 324.393 127.227 324.396C127.227 325.366 126.441 326.152 125.471 326.152Z" fill="#E0E0E0"/>
<path d="M125.471 333.176H90.8506C89.8811 333.184 89.0897 332.403 89.082 331.433C89.082 331.429 89.082 331.424 89.082 331.42C89.082 330.451 89.8684 329.664 90.8379 329.664C90.8417 329.664 90.8468 329.664 90.8506 329.664H125.471C126.441 329.664 127.227 330.451 127.227 331.42C127.227 332.39 126.441 333.176 125.471 333.176Z" fill="#E0E0E0"/>
<path d="M114.975 306.136H101.335L97.7468 302.535V294.849L101.335 291.248H114.975L118.575 294.849V302.535L114.975 306.136Z" fill="#EBEBEB"/>
<path d="M107.812 410.416L75.7489 398.608L43.3292 410.429C42.4373 410.752 41.4525 410.292 41.1293 409.4C41.0606 409.211 41.0262 409.013 41.0262 408.813C41.025 408.146 41.413 407.539 42.0187 407.261L75.7489 391.558L109.136 407.21C109.74 407.491 110.127 408.097 110.128 408.762C110.152 409.71 109.403 410.499 108.455 410.523C108.236 410.528 108.017 410.493 107.812 410.416Z" fill="#263238"/>
<g opacity="0.3">
<path d="M107.812 410.416L75.7489 398.608L43.3292 410.429C42.4373 410.752 41.4525 410.292 41.1293 409.4C41.0606 409.211 41.0262 409.013 41.0262 408.813C41.025 408.146 41.413 407.539 42.0187 407.261L75.7489 391.558L109.136 407.21C109.74 407.491 110.127 408.097 110.128 408.762C110.152 409.71 109.403 410.499 108.455 410.523C108.236 410.528 108.017 410.493 107.812 410.416Z" fill="white"/>
</g>
<g opacity="0.2">
<path d="M68.191 401.356L75.7488 398.608L82.9504 401.267V394.981L75.7488 391.609L68.191 395.108V401.356Z" fill="black"/>
</g>
<path d="M75.5707 410.646C74.1011 410.661 72.858 409.561 72.6951 408.101L71.7917 398.595V319.701H79.3114V398.595L78.408 408.101C78.2515 409.55 77.0275 410.647 75.5707 410.646Z" fill="#263238"/>
<g opacity="0.3">
<path d="M75.5707 410.646C74.1011 410.661 72.858 409.561 72.6951 408.101L71.7917 398.595V319.701H79.3114V398.595L78.408 408.101C78.2515 409.55 77.0275 410.647 75.5707 410.646Z" fill="white"/>
</g>
<g opacity="0.2">
<path d="M71.83 319.688H79.3114V328.876H71.83V319.688Z" fill="black"/>
</g>
<path d="M58.801 238.389C59.983 238.358 61.0836 238.992 61.6511 240.031C75.3417 262.97 80.2593 290.093 75.4943 316.38C75.3442 317.751 74.2131 318.806 72.8351 318.861C70.7612 319.014 33.8374 318.861 32.5014 318.861C30.4503 318.911 28.7479 317.287 28.6983 315.236C28.6932 315.002 28.7097 314.766 28.7479 314.535C33.0599 290.06 28.3929 264.85 15.6045 243.543C14.6833 241.892 15.2736 239.807 16.9239 238.885C17.4685 238.581 18.0856 238.431 18.709 238.453C19.7778 238.364 56.4471 238.427 58.801 238.389Z" fill="#407BFF"/>
<g opacity="0.2">
<path d="M58.801 238.389C59.983 238.358 61.0836 238.992 61.6511 240.031C75.3417 262.97 80.2593 290.093 75.4943 316.38C75.3442 317.751 74.2131 318.806 72.8351 318.861C70.7612 319.014 33.8374 318.861 32.5014 318.861C30.4503 318.911 28.7479 317.287 28.6983 315.236C28.6932 315.002 28.7097 314.766 28.7479 314.535C33.0599 290.06 28.3929 264.85 15.6045 243.543C14.6833 241.892 15.2736 239.807 16.9239 238.885C17.4685 238.581 18.0856 238.431 18.709 238.453C19.7778 238.364 56.4471 238.427 58.801 238.389Z" fill="black"/>
</g>
<path d="M28.7479 314.509C33.06 290.034 28.3929 264.825 15.6045 243.517C13.3142 239.7 19.2816 236.226 21.5718 240.03C35.256 262.972 40.1737 290.093 35.4151 316.38C34.6262 320.744 27.9591 318.925 28.7479 314.547V314.509Z" fill="#407BFF"/>
<path d="M28.7479 314.509C33.06 290.034 28.3929 264.825 15.6045 243.517C13.3142 239.7 19.2816 236.226 21.5718 240.03C35.256 262.972 40.1737 290.093 35.4151 316.38C34.6262 320.744 27.9591 318.925 28.7479 314.547V314.509Z" fill="white"/>
<path d="M143.947 312.511C135.482 310.356 126.801 309.161 118.067 308.948C109.072 308.719 75.4435 308.948 67.4531 308.948C57.7132 308.934 48.0089 310.145 38.5706 312.55C32.6414 314.064 34.4609 322.615 39.8429 322.73C40.3137 322.73 142.013 322.73 142.382 322.73C147.892 322.933 149.94 314.051 143.947 312.511Z" fill="#407BFF"/>
<g opacity="0.3">
<path d="M143.947 312.511C135.482 310.356 126.801 309.161 118.067 308.948C109.072 308.719 75.4435 308.948 67.4531 308.948C57.7132 308.934 48.0089 310.145 38.5706 312.55C32.6414 314.064 34.4609 322.615 39.8429 322.73C40.3137 322.73 142.013 322.73 142.382 322.73C147.892 322.933 149.94 314.051 143.947 312.511Z" fill="black"/>
</g>
<path d="M41.2551 322.5C58.4002 318.136 76.3659 318.136 93.5109 322.5C99.9745 324.142 102.735 314.153 96.2719 312.511C77.3176 307.701 57.4612 307.701 38.5069 312.511C32.0433 314.153 34.7789 324.142 41.2551 322.5Z" fill="#407BFF"/>
<path d="M41.2551 322.5C58.4002 318.136 76.3659 318.136 93.5109 322.5C99.9745 324.142 102.735 314.153 96.2719 312.511C77.3176 307.701 57.4612 307.701 38.5069 312.511C32.0433 314.153 34.7789 324.142 41.2551 322.5Z" fill="white"/>
<path d="M134.863 258.431L146.556 257.934L150.055 255.695C150.879 255.16 151.889 254.995 152.841 255.237L155.386 255.86C156.696 256.189 158.079 255.751 158.961 254.728C160.247 253.23 160.076 250.971 158.578 249.685C158.386 249.521 158.178 249.377 157.956 249.256L154.139 247.195C152.924 246.532 151.432 246.636 150.322 247.462L144.163 252.017L134.888 251.368L134.863 258.431Z" fill="#EBB376"/>
<path d="M122.203 213.105L118.156 248.734L140.919 250.363L139.914 258.545C139.914 258.545 116.897 262.566 108.461 260.263C100.025 257.96 111.26 219.404 111.26 219.404L122.203 213.105Z" fill="#407BFF"/>
<g opacity="0.2">
<path d="M122.203 213.105L118.156 248.734L140.919 250.363L139.914 258.545C139.914 258.545 116.897 262.566 108.461 260.263C100.025 257.96 111.26 219.404 111.26 219.404L122.203 213.105Z" fill="white"/>
</g>
<g opacity="0.1">
<path d="M114.899 257.056C108.957 253.964 116.935 224.303 119.747 214.53L111.26 219.429C111.26 219.429 100.025 257.985 108.461 260.289C113.652 261.701 124.34 260.734 131.809 259.767C126.719 259.767 119.276 259.334 114.899 257.056Z" fill="black"/>
</g>
<path d="M102.061 282.735C85.2559 285.869 68.1172 286.836 51.0651 285.611C51.0651 285.611 54.9839 239.992 68.8781 215.026C71.0882 211.06 74.7296 208.089 79.0569 206.717C89.0322 203.612 105.077 200.825 122.152 213.079C122.203 213.105 113.563 229.214 102.061 282.735Z" fill="#407BFF"/>
<g opacity="0.4">
<path d="M102.061 282.735C85.2559 285.869 68.1172 286.836 51.0651 285.611C51.0651 285.611 54.9839 239.992 68.8781 215.026C71.0882 211.06 74.7296 208.089 79.0569 206.717C89.0322 203.612 105.077 200.825 122.152 213.079C122.203 213.105 113.563 229.214 102.061 282.735Z" fill="white"/>
</g>
<path d="M110.357 224.468C110.357 225.226 109.741 225.842 108.983 225.842C108.224 225.842 107.609 225.226 107.609 224.468C107.609 223.71 108.224 223.094 108.983 223.094C109.741 223.094 110.357 223.71 110.357 224.468Z" fill="#407BFF"/>
<path d="M105.522 238.478C105.522 239.236 104.906 239.852 104.148 239.852C103.389 239.852 102.774 239.236 102.774 238.478C102.774 237.72 103.389 237.104 104.148 237.104C104.906 237.104 105.522 237.72 105.522 238.478Z" fill="#407BFF"/>
<path d="M99.7582 255.682C100.516 255.682 101.132 256.298 101.132 257.056C101.132 257.815 100.516 258.431 99.7582 258.431C98.9998 258.431 98.384 257.815 98.384 257.056C98.384 256.298 98.9998 255.682 99.7582 255.682Z" fill="#407BFF"/>
<path d="M97.5189 272.517C97.5265 273.275 96.9158 273.898 96.1574 273.904C95.3991 273.912 94.7782 273.301 94.7706 272.543C94.7629 271.784 95.3737 271.162 96.132 271.156C96.1358 271.156 96.1409 271.156 96.1447 271.156C96.8992 271.156 97.5125 271.762 97.5189 272.517Z" fill="#407BFF"/>
<g opacity="0.1">
<path d="M112.049 242.105L94.7706 245.998L81.1563 242.257L75.787 226.911L74.6291 218.284H70.8121C70.8121 218.284 67.1604 245.769 79.6295 257.056C87.4036 264.093 100.102 259.512 108.55 255.059C109.781 250.274 110.946 245.956 112.049 242.105Z" fill="black"/>
</g>
<path d="M123.233 365.701L117.24 391.8L124.684 394.689L135.397 368.437L123.233 365.701Z" fill="#EBB376"/>
<path d="M124.251 392.971L117.495 389.357C117.198 389.204 116.837 389.272 116.617 389.522L111.795 395.109C111.362 395.59 111.4 396.329 111.881 396.762C111.886 396.767 111.891 396.77 111.896 396.776C111.958 396.834 112.026 396.886 112.1 396.928C114.937 398.392 117.52 399.588 121.007 401.471C125.142 403.698 123.818 403.622 128.641 406.306C131.542 407.923 133.87 404.881 132.712 404.054C127.432 400.237 126.719 397.692 125.625 394.46C125.359 393.816 124.872 393.288 124.251 392.971Z" fill="#263238"/>
<path d="M62.9362 284.746L99.4147 282.735C99.4147 282.735 160.119 292.228 159.215 309.203C158.312 326.178 133.768 379.699 133.768 379.699L119.289 375.678C119.289 375.678 130.32 321.864 137.509 312.944C137.509 312.944 92.175 307.625 80.8255 304.609C74.5274 302.942 59.4754 305.754 62.9362 284.746Z" fill="#263238"/>
<g opacity="0.2">
<path d="M131.313 312.206C131.533 307.173 130.578 302.16 128.526 297.56C125.154 289.925 97.3661 285.356 84.07 283.562L62.9362 284.72C59.4753 305.729 74.5273 302.917 80.7492 304.584C89.5284 306.938 118.5 310.641 131.313 312.206Z" fill="black"/>
</g>
<path d="M98.4096 372.891L97.4553 399.651L105.509 400.033L110.866 373.273L98.4096 372.891Z" fill="#EBB376"/>
<path d="M104.937 397.602L97.1244 397.768C96.7835 397.769 96.4934 398.017 96.4374 398.353L94.936 405.708C94.8291 406.356 95.2312 406.978 95.8648 407.146H96.1193C99.3765 407.032 102.252 406.803 106.298 406.726C111.082 406.637 109.873 407.235 115.497 407.21C118.882 407.21 119.429 403.392 118.042 403.176C111.464 402.476 109.53 400.504 106.96 398.201C106.383 397.755 105.662 397.543 104.937 397.602Z" fill="#263238"/>
<path d="M72.6952 284.746C72.6952 284.746 121.605 286.476 124.493 301.441C127.381 316.405 110.968 383.44 110.968 383.44H96.3101C96.3101 383.44 98.0278 323.302 102.926 310.641C102.926 310.641 62.6436 317.003 52.0321 307.829C44.3979 301.301 53.4699 284.746 53.4699 284.746H72.6952Z" fill="#263238"/>
<path d="M118.067 372.509L136.3 377.586L132.967 384.598L116.35 380.475L118.067 372.509Z" fill="#263238"/>
<g opacity="0.3">
<path d="M118.067 372.509L136.3 377.586L132.967 384.598L116.35 380.475L118.067 372.509Z" fill="black"/>
</g>
<path d="M117.228 237.078L131.796 232.281L141.123 236.455C142.011 236.845 142.649 237.651 142.828 238.605L143.807 243.912C144.109 245.506 143.06 247.046 141.466 247.347C141.285 247.382 141.102 247.398 140.919 247.398C140.232 247.396 139.568 247.158 139.036 246.724L130.842 239.954L118.118 245.044L117.228 237.078Z" fill="#EBB376"/>
<path d="M94.8596 379.699L113.283 380.564L111.553 387.906L94.8596 387.041V379.699Z" fill="#263238"/>
<g opacity="0.3">
<path d="M94.8596 379.699L113.283 380.564L111.553 387.906L94.8596 387.041V379.699Z" fill="black"/>
</g>
<path d="M71.7537 213.105C74.591 208.855 79.1079 204.414 90.5464 241.876L124.862 233.439L125.867 242.792C125.867 242.792 97.8752 257.794 86.6403 255.695C75.4053 253.595 63.9541 224.786 71.7537 213.105Z" fill="#407BFF"/>
<g opacity="0.2">
<path d="M71.7537 213.105C74.591 208.855 79.1079 204.414 90.5464 241.876L124.862 233.439L125.867 242.792C125.867 242.792 97.8752 257.794 86.6403 255.695C75.4053 253.595 63.9541 224.786 71.7537 213.105Z" fill="white"/>
</g>
<path d="M107.621 200.062L101.12 206.157C101.12 206.157 103.664 214.059 110.141 214.059C116.617 214.059 112.685 204.057 112.685 204.057L107.621 200.062Z" fill="#EBB376"/>
<path d="M111.057 218.64L114.212 216.986L115.548 214.975L114.988 208.74C109.776 206.117 104.092 204.56 98.2696 204.159L98.0278 207.06L101.552 217.24L105.662 218.602L111.057 218.64Z" fill="#EBB376"/>
<g opacity="0.1">
<path d="M112.698 204.057L107.609 200.062L106.743 200.863C106.247 203.841 105.675 210.025 108.97 212.456C110.002 213.297 111.379 213.581 112.66 213.219C115.357 210.865 112.698 204.057 112.698 204.057Z" fill="black"/>
</g>
<path d="M109.25 219.429L114.136 221.974C117.571 217.889 116.681 212.163 115.93 209.173C115.357 208.867 114.785 208.575 114.212 208.307C114.861 212.825 114.339 217.787 108.957 217.94C100.522 218.195 99.262 207.404 99.0711 204.172L97.2516 204.057C94.5797 216.006 102.061 221.974 102.061 221.974L109.25 219.429Z" fill="#407BFF"/>
<g opacity="0.2">
<path d="M109.25 219.429L114.136 221.974C117.571 217.889 116.681 212.163 115.93 209.173C115.357 208.867 114.785 208.575 114.212 208.307C114.861 212.825 114.339 217.787 108.957 217.94C100.522 218.195 99.262 207.404 99.0711 204.172L97.2516 204.057C94.5797 216.006 102.061 221.974 102.061 221.974L109.25 219.429Z" fill="white"/>
</g>
<path d="M130.117 184.945C134.774 187.96 133.399 195.519 128.539 198.624C127.165 189.971 130.117 184.945 130.117 184.945Z" fill="#263238"/>
<g opacity="0.4">
<path d="M130.117 184.945C134.774 187.96 133.399 195.519 128.539 198.624C127.165 189.971 130.117 184.945 130.117 184.945Z" fill="black"/>
</g>
<path d="M108.792 189.92C107.049 197.886 105.611 202.441 108.372 207.735C111.035 212.949 117.417 215.022 122.635 212.367C124.55 211.382 126.124 209.843 127.152 207.951C130.817 201.474 133.056 189.538 126.376 183.99C121.934 180.081 115.165 180.515 111.257 184.957C110.011 186.374 109.16 188.095 108.792 189.945V189.92Z" fill="#EBB376"/>
<path d="M107.952 197.351C112.215 199.54 114.95 192.07 114.314 188.444C119.849 192.261 132.292 191.676 135.944 186.624C139.927 181.089 133.946 176.444 128.539 174.726C127.125 174.352 125.677 175.195 125.303 176.608C125.284 176.68 125.269 176.754 125.256 176.826C125.198 177.072 125.059 177.292 124.862 177.45C123.719 176.475 122.479 175.621 121.159 174.905C119.265 173.973 116.985 174.374 115.523 175.897C114.887 176.47 113.36 176.584 110.281 175.554C103.919 173.39 102.812 180.338 105.916 181.687C103.105 183.405 98.4604 188.126 100.967 192.274C103.474 196.422 105.624 201.907 104.212 202.81C105.547 203.332 107.85 201.958 107.952 197.351Z" fill="#263238"/>
<path d="M103.97 195.595C104.012 197.419 104.733 199.162 105.993 200.482C107.66 202.174 109.581 200.902 110.013 198.649C110.395 196.613 110.013 193.292 107.876 192.452C105.738 191.612 103.957 193.317 103.97 195.595Z" fill="#EBB376"/>
<path d="M119.887 195.888C119.709 196.524 119.887 197.16 120.32 197.25C120.752 197.339 121.21 196.97 121.401 196.333C121.592 195.697 121.401 195.061 120.956 194.985C120.51 194.908 120.065 195.252 119.887 195.888Z" fill="#263238"/>
<path d="M126.999 198.14C126.821 198.776 126.999 199.413 127.432 199.489C127.865 199.565 128.323 199.209 128.513 198.573C128.704 197.937 128.513 197.3 128.068 197.224C127.623 197.148 127.19 197.542 126.999 198.14Z" fill="#263238"/>
<path d="M124.646 197.771C124.85 199.946 125.338 202.085 126.096 204.134C125.032 204.482 123.871 204.347 122.915 203.765L124.646 197.771Z" fill="#D58745"/>
<path d="M118.36 192.859C118.295 192.848 118.235 192.821 118.182 192.783C118.034 192.63 118.034 192.389 118.182 192.236C119.169 191.465 120.472 191.227 121.668 191.6C121.864 191.676 121.962 191.897 121.886 192.093C121.886 192.095 121.885 192.095 121.885 192.096C121.808 192.292 121.587 192.39 121.391 192.313C121.39 192.313 121.39 192.312 121.388 192.312C120.461 192.021 119.448 192.201 118.678 192.796C118.589 192.868 118.47 192.892 118.36 192.859Z" fill="#263238"/>
<path d="M130.753 196.702C130.637 196.646 130.557 196.537 130.537 196.41C130.399 195.415 129.806 194.539 128.933 194.043C128.755 193.919 128.709 193.675 128.832 193.496C128.926 193.354 129.103 193.292 129.264 193.343C130.367 193.946 131.118 195.037 131.287 196.282C131.325 196.49 131.189 196.69 130.982 196.728C130.904 196.738 130.825 196.729 130.753 196.702Z" fill="#263238"/>
<path d="M119.327 205.928C119.681 206.031 120.042 206.102 120.409 206.144C120.524 206.168 120.638 206.095 120.663 205.979C120.677 205.86 120.592 205.752 120.473 205.738C120.468 205.738 120.465 205.737 120.459 205.737C118.589 205.531 116.925 204.456 115.968 202.836C115.917 202.728 115.789 202.68 115.68 202.731C115.679 202.733 115.677 202.733 115.675 202.734C115.571 202.775 115.519 202.893 115.56 202.997C115.563 203.007 115.569 203.018 115.574 203.027C116.38 204.462 117.735 205.509 119.327 205.928Z" fill="#263238"/>
<path d="M106.972 181.941C105.157 181.491 103.725 180.095 103.232 178.289C103.082 177.829 102.585 177.577 102.125 177.727C101.894 177.802 101.706 177.969 101.603 178.188C100.522 180.491 100.025 183.672 106.972 181.941Z" fill="#2E353A"/>
<path d="M170.769 261.867H151.785C150.532 261.86 149.52 260.842 149.52 259.589C149.52 258.338 150.534 257.324 151.785 257.324H170.769C172.019 257.324 173.033 258.338 173.033 259.589C173.033 260.842 172.022 261.86 170.769 261.867Z" fill="#407BFF"/>
<g opacity="0.3">
<path d="M170.769 261.867H151.785C150.532 261.86 149.52 260.842 149.52 259.589C149.52 258.338 150.534 257.324 151.785 257.324H170.769C172.019 257.324 173.033 258.338 173.033 259.589C173.033 260.842 172.022 261.86 170.769 261.867Z" fill="white"/>
</g>
<path d="M152.956 261.867H133.985C132.734 261.867 131.72 260.852 131.72 259.601C131.72 259.598 131.72 259.593 131.72 259.589C131.72 258.338 132.734 257.324 133.985 257.324H152.956C154.209 257.324 155.225 258.335 155.233 259.589C155.233 260.847 154.214 261.867 152.956 261.867Z" fill="#407BFF"/>
<g opacity="0.5">
<path d="M152.956 261.867H133.985C132.734 261.867 131.72 260.852 131.72 259.601C131.72 259.598 131.72 259.593 131.72 259.589C131.72 258.338 132.734 257.324 133.985 257.324H152.956C154.209 257.324 155.225 258.335 155.233 259.589C155.233 260.847 154.214 261.867 152.956 261.867Z" fill="white"/>
</g>
<path d="M160.742 191.676H157.091C153.869 191.731 151.197 194.184 150.869 197.389L147.701 233.019C147.355 235.808 149.337 238.35 152.126 238.696C152.384 238.727 152.645 238.74 152.905 238.733H156.556L160.742 191.676Z" fill="#407BFF"/>
<g opacity="0.3">
<path d="M160.742 191.676H157.091C153.869 191.731 151.197 194.184 150.869 197.389L147.701 233.019C147.355 235.808 149.337 238.35 152.126 238.696C152.384 238.727 152.645 238.74 152.905 238.733H156.556L160.742 191.676Z" fill="white"/>
</g>
<path d="M214.919 238.758H155.398C152.589 238.842 150.242 236.633 150.158 233.823C150.15 233.564 150.163 233.303 150.194 233.045L153.363 197.415C153.691 194.209 156.363 191.756 159.584 191.701H219.105C221.915 191.617 224.262 193.826 224.346 196.636C224.354 196.896 224.341 197.157 224.309 197.415L221.141 233.045C220.813 236.25 218.141 238.703 214.919 238.758Z" fill="#407BFF"/>
<g opacity="0.2">
<path d="M214.919 238.758H155.398C152.589 238.842 150.242 236.633 150.158 233.823C150.15 233.564 150.163 233.303 150.194 233.045L153.363 197.415C153.691 194.209 156.363 191.756 159.584 191.701H219.105C221.915 191.617 224.262 193.826 224.346 196.636C224.354 196.896 224.341 197.157 224.309 197.415L221.141 233.045C220.813 236.25 218.141 238.703 214.919 238.758Z" fill="black"/>
</g>
<g opacity="0.5">
<path d="M188.302 211.769C188.304 211.472 188.347 211.176 188.429 210.891C188.048 210.779 187.655 210.719 187.258 210.712C184.771 210.712 182.754 212.729 182.754 215.217C182.754 217.705 184.771 219.722 187.258 219.722C189.746 219.722 191.762 217.705 191.762 215.217C189.858 215.225 188.309 213.686 188.302 211.781C188.302 211.777 188.302 211.772 188.302 211.769Z" fill="white"/>
</g>
<path d="M184.535 255.848H189.116L187.309 235.131C187.204 233.952 186.216 233.046 185.032 233.045C183.781 233.039 182.762 234.049 182.757 235.299C182.757 235.374 182.759 235.451 182.767 235.526L184.535 255.848Z" fill="#263238"/>
<g opacity="0.3">
<path d="M184.535 255.848H189.116L187.309 235.131C187.204 233.952 186.216 233.046 185.032 233.045C183.781 233.039 182.762 234.049 182.757 235.299C182.757 235.374 182.759 235.451 182.767 235.526L184.535 255.848Z" fill="white"/>
</g>
<path d="M199.002 261.866C199.218 255.229 194.012 249.673 187.375 249.457C180.739 249.241 175.184 254.446 174.967 261.084C174.958 261.345 174.958 261.605 174.967 261.866H199.002Z" fill="#407BFF"/>
<g opacity="0.5">
<path d="M199.002 261.866C199.218 255.229 194.012 249.673 187.375 249.457C180.739 249.241 175.184 254.446 174.967 261.084C174.958 261.345 174.958 261.605 174.967 261.866H199.002Z" fill="white"/>
</g>
<path d="M311.784 238.669C310.598 238.64 309.495 239.272 308.921 240.31C295.237 263.252 290.319 290.373 295.078 316.66C295.233 318.029 296.36 319.081 297.737 319.141C299.811 319.281 336.735 319.141 338.071 319.141C340.129 319.182 341.831 317.546 341.871 315.488C341.876 315.262 341.86 315.037 341.824 314.814C337.517 290.339 342.184 265.133 354.968 243.822C355.889 242.172 355.298 240.086 353.648 239.165C353.104 238.861 352.487 238.711 351.863 238.732C350.794 238.643 314.138 238.707 311.784 238.669Z" fill="#407BFF"/>
<g opacity="0.2">
<path d="M311.784 238.669C310.598 238.64 309.495 239.272 308.921 240.31C295.237 263.252 290.319 290.373 295.078 316.66C295.233 318.029 296.36 319.081 297.737 319.141C299.811 319.281 336.735 319.141 338.071 319.141C340.129 319.182 341.831 317.546 341.871 315.488C341.876 315.262 341.86 315.037 341.824 314.814C337.517 290.339 342.184 265.133 354.968 243.822C355.889 242.172 355.298 240.086 353.648 239.165C353.104 238.861 352.487 238.711 351.863 238.732C350.794 238.643 314.138 238.707 311.784 238.669Z" fill="black"/>
</g>
<path d="M341.824 314.789C337.517 290.314 342.184 265.107 354.968 243.797C357.271 239.98 351.291 236.506 349 240.31C335.32 263.253 330.406 290.375 335.17 316.66C335.959 321.024 342.613 319.205 341.824 314.827V314.789Z" fill="#407BFF"/>
<path d="M341.824 314.789C337.517 290.314 342.184 265.107 354.968 243.797C357.271 239.98 351.291 236.506 349 240.31C335.32 263.253 330.406 290.375 335.17 316.66C335.959 321.024 342.613 319.205 341.824 314.827V314.789Z" fill="white"/>
<path d="M319.189 410.645L287.126 398.837L254.706 410.658C253.807 410.981 252.815 410.514 252.492 409.615C252.426 409.432 252.392 409.238 252.39 409.042C252.392 408.372 252.785 407.765 253.396 407.49L287.126 391.838L320.512 407.477C321.109 407.765 321.49 408.366 321.492 409.029C321.492 409.979 320.725 410.749 319.776 410.749C319.576 410.749 319.377 410.714 319.189 410.645Z" fill="#263238"/>
<g opacity="0.3">
<path d="M319.189 410.645L287.126 398.837L254.706 410.658C253.807 410.981 252.815 410.514 252.492 409.615C252.426 409.432 252.392 409.238 252.39 409.042C252.392 408.372 252.785 407.765 253.396 407.49L287.126 391.838L320.512 407.477C321.109 407.765 321.49 408.366 321.492 409.029C321.492 409.979 320.725 410.749 319.776 410.749C319.576 410.749 319.377 410.714 319.189 410.645Z" fill="white"/>
</g>
<g opacity="0.2">
<path d="M279.568 401.636L287.126 398.888L294.327 401.534V395.261L287.126 391.876L279.568 395.388V401.636Z" fill="black"/>
</g>
<path d="M286.948 410.964C285.491 410.965 284.267 409.868 284.11 408.419L283.207 398.913V320.019H290.688V398.913L289.785 408.419C289.628 409.868 288.404 410.965 286.948 410.964Z" fill="#263238"/>
<g opacity="0.3">
<path d="M286.948 410.964C285.491 410.965 284.267 409.868 284.11 408.419L283.207 398.913V320.019H290.688V398.913L289.785 408.419C289.628 409.868 288.404 410.965 286.948 410.964Z" fill="white"/>
</g>
<g opacity="0.2">
<path d="M283.207 319.968H290.688V329.155H283.207V319.968Z" fill="black"/>
</g>
<path d="M227.847 312.778C236.314 310.634 244.994 309.439 253.726 309.216C262.709 308.999 296.35 309.216 304.341 309.216C314.081 309.209 323.784 310.419 333.223 312.817C339.152 314.331 337.32 322.895 331.951 322.997C331.48 322.997 229.793 322.997 229.424 322.997C223.826 323.2 221.79 314.331 227.847 312.778Z" fill="#407BFF"/>
<g opacity="0.3">
<path d="M227.847 312.778C236.314 310.634 244.994 309.439 253.726 309.216C262.709 308.999 296.35 309.216 304.341 309.216C314.081 309.209 323.784 310.419 333.223 312.817C339.152 314.331 337.32 322.895 331.951 322.997C331.48 322.997 229.793 322.997 229.424 322.997C223.826 323.2 221.79 314.331 227.847 312.778Z" fill="black"/>
</g>
<path d="M330.475 322.767C313.324 318.416 295.358 318.416 278.206 322.767C271.756 324.422 268.995 314.433 275.458 312.778C294.413 307.968 314.269 307.968 333.223 312.778C339.674 314.433 336.939 324.422 330.475 322.767Z" fill="#407BFF"/>
<path d="M330.475 322.767C313.324 318.416 295.358 318.416 278.206 322.767C271.756 324.422 268.995 314.433 275.458 312.778C294.413 307.968 314.269 307.968 333.223 312.778C339.674 314.433 336.939 324.422 330.475 322.767Z" fill="white"/>
<path d="M281.158 196.257C281.158 196.257 274.898 195.646 276.845 186.344C278.792 177.042 278.626 168.211 292.444 169.217C292.444 169.217 303.386 166.481 306.44 176.762C309.494 187.044 314.074 194.335 306.796 197.364C297.635 201.181 295.345 192.732 295.345 192.732L281.947 194.005L281.158 196.257Z" fill="#263238"/>
<path d="M279.11 209.873C271.183 208.74 275 236.315 267.888 241.405C263.956 244.128 244.184 236.811 244.184 236.811L241.397 227.904C241.257 227.442 240.915 227.068 240.468 226.886L236.346 225.244C235.515 224.94 234.594 225.368 234.29 226.199C234.183 226.492 234.163 226.811 234.234 227.115L235.722 233.693C235.785 233.981 235.926 234.244 236.13 234.457L241.868 240.552C241.868 240.552 265.445 252.005 271.132 250.083C277.799 247.882 280.268 235.742 281.922 228.514C283.22 223.043 285.179 210.738 279.11 209.873Z" fill="#B97964"/>
<path d="M269.898 375.105L272.303 393.696L265.534 393.874L260.661 375.932L269.898 375.105Z" fill="#B97964"/>
<path d="M265.445 392.831H273.168C273.501 392.838 273.788 393.067 273.868 393.391L275.445 400.618C275.594 401.248 275.205 401.877 274.575 402.026C274.569 402.027 274.561 402.03 274.555 402.031C274.471 402.044 274.384 402.044 274.3 402.031C271.107 402.031 268.269 401.776 264.287 401.776C259.592 401.776 260.775 402.336 255.253 402.4C251.932 402.4 251.334 398.646 252.708 398.468C259.172 397.666 261.004 395.719 263.498 393.378C264.055 392.958 264.75 392.763 265.445 392.831Z" fill="#263238"/>
<g opacity="0.1">
<path d="M263.485 386.341L260.661 375.932L269.898 375.105L271.285 385.845L263.485 386.341Z" fill="black"/>
</g>
<path d="M293.195 263.495H282.265C280.461 268.415 279.302 273.548 278.817 278.765C278.245 286.527 293.195 280.775 293.195 280.775L294.467 270.137L293.195 263.495Z" fill="#263238"/>
<path d="M223.584 349.35L216.383 370.358L210.339 368.628L215.237 346.474L223.584 349.35Z" fill="#B97964"/>
<path d="M210.453 367.012L217.884 369.264C218.207 369.347 218.428 369.643 218.418 369.977L218.138 377.357C218.126 378.011 217.587 378.53 216.933 378.518C216.911 378.518 216.889 378.516 216.866 378.515C216.786 378.528 216.704 378.528 216.624 378.515C213.545 377.65 210.835 376.772 206.98 375.767C202.438 374.583 203.443 375.423 198.073 374.1C194.842 373.311 195.211 369.493 196.623 369.671C203.074 370.511 205.364 368.793 208.354 367.19C209.007 366.868 209.756 366.804 210.453 367.012Z" fill="#263238"/>
<g opacity="0.1">
<path d="M219.652 360.802L212.476 358.957L215.237 346.474L223.584 349.35L219.652 360.802Z" fill="black"/>
</g>
<path d="M314.978 262.502C314.978 262.502 326.098 281.106 324.177 296.643C322.256 312.18 307.891 320.401 252.658 293.933C252.658 293.933 241.321 305.665 222.528 355.916L212.935 353.04C212.935 353.04 223.775 294.951 233.458 278.421C243.14 261.892 286.197 281.297 289.441 278.04C292.342 275.138 289.823 263.66 289.823 263.66L314.978 262.502Z" fill="#263238"/>
<path d="M224.869 354.962L222.859 358.843L211.357 354.962V350.508L224.869 354.962Z" fill="#407BFF"/>
<path d="M319.456 212.774L280.319 209.847C278.218 209.675 276.374 211.239 276.202 213.34C276.183 213.57 276.186 213.803 276.209 214.033C276.585 216.203 276.807 218.398 276.87 220.6C276.527 224.748 274.326 230.958 275.038 233.795C275.636 236.06 278.016 238.631 278.957 241.188C281.006 246.724 281.349 264.653 281.349 264.653C293.996 266.702 316.504 263.66 316.504 263.66C311.415 245.451 319.049 224.213 321.327 215.382C321.612 214.259 320.931 213.116 319.807 212.831C319.693 212.802 319.575 212.783 319.456 212.774Z" fill="#407BFF"/>
<g opacity="0.7">
<path d="M319.456 212.774L280.319 209.847C278.218 209.675 276.374 211.239 276.202 213.34C276.183 213.57 276.186 213.803 276.209 214.033C276.585 216.203 276.807 218.398 276.87 220.6C276.527 224.748 274.326 230.958 275.038 233.795C275.636 236.06 278.016 238.631 278.957 241.188C281.006 246.724 281.349 264.653 281.349 264.653C293.996 266.702 316.504 263.66 316.504 263.66C311.415 245.451 319.049 224.213 321.327 215.382C321.612 214.259 320.931 213.116 319.807 212.831C319.693 212.802 319.575 212.783 319.456 212.774Z" fill="white"/>
</g>
<g opacity="0.1">
<path d="M313.629 234.279L300.104 248.123L280.827 252.005H280.7C280.878 254.13 281.006 256.267 281.107 258.151C286.439 258.151 303.857 257.782 308.883 253.404C311.423 250.976 313.496 248.104 315.003 244.93C315.242 241.822 315.646 238.73 316.212 235.666L313.629 234.279Z" fill="black"/>
</g>
<g opacity="0.2">
<path d="M246.347 299.15L243.331 296.809C243.331 296.809 232.681 302.573 237.974 318.988C240.804 312.973 243.943 307.107 247.377 301.415L246.347 299.15Z" fill="black"/>
</g>
<path d="M292.482 309.216C282.443 306.811 269.452 301.988 252.657 293.946C252.657 293.946 239.692 294.124 238.827 303.757C237.962 313.389 260.699 380.106 260.699 380.106L271.196 379.202C271.196 379.202 265.012 312.728 263.561 309.279L292.482 309.216Z" fill="#263238"/>
<g opacity="0.2">
<path d="M252.657 293.933C251.155 293.99 249.662 294.204 248.204 294.569C255.247 300.587 263.145 305.523 271.641 309.215H292.482C282.443 306.81 269.452 301.988 252.657 293.933Z" fill="black"/>
</g>
<path d="M272.455 377.408L272.735 381.722L260.508 382.676L258.778 378.579L272.455 377.408Z" fill="#407BFF"/>
<path d="M300.982 194.552L292.444 202.937C293.869 209.834 288.818 210.483 288.818 210.483C288.818 210.483 289.225 212.914 295.409 212.583C298.176 212.552 300.933 212.22 303.628 211.59C299.9 208.613 300.447 199.54 300.982 194.552Z" fill="#B97964"/>
<g opacity="0.1">
<path d="M292.52 206.831C292.774 205.542 292.747 204.215 292.444 202.937L300.078 195.455L300.816 196.32C300.816 196.32 299.277 205.864 292.52 206.831Z" fill="black"/>
</g>
<path d="M301.72 183.443C302.343 191.663 302.788 195.137 299.251 199.883C293.92 207.048 283.69 206.017 280.611 198.14C277.85 191.052 277.29 178.798 284.823 174.446C290.198 171.32 297.091 173.143 300.217 178.52C301.091 180.022 301.605 181.708 301.72 183.443Z" fill="#B97964"/>
<path d="M284.912 191.778C284.531 193.38 283.932 194.921 283.13 196.359C283.885 196.751 284.773 196.793 285.561 196.473L284.912 191.778Z" fill="#A24E3F"/>
<path d="M291.134 186.141C291.187 186.123 291.235 186.092 291.273 186.052C291.399 185.929 291.403 185.727 291.281 185.601C291.279 185.599 291.276 185.596 291.273 185.593C290.338 184.771 289.061 184.458 287.851 184.754C287.679 184.803 287.579 184.983 287.628 185.154C287.678 185.326 287.857 185.427 288.029 185.377C289.033 185.152 290.083 185.422 290.854 186.102C290.936 186.158 291.039 186.172 291.134 186.141Z" fill="#2E353A"/>
<path d="M278.982 187.273C279.036 187.255 279.084 187.225 279.122 187.184C279.784 186.407 280.776 185.99 281.794 186.064C281.97 186.082 282.133 185.969 282.176 185.797C282.191 185.616 282.063 185.455 281.883 185.428C280.645 185.316 279.429 185.815 278.626 186.764C278.5 186.886 278.496 187.087 278.619 187.213C278.621 187.216 278.624 187.22 278.626 187.222C278.722 187.313 278.862 187.337 278.982 187.286V187.273Z" fill="#2E353A"/>
<path d="M289.441 190.009C289.543 190.671 289.263 191.281 288.818 191.281C288.373 191.281 287.965 190.862 287.876 190.187C287.787 189.513 288.067 188.915 288.5 188.915C288.932 188.915 289.352 189.347 289.441 190.009Z" fill="#2E353A"/>
<path d="M281.934 191.052C282.036 191.714 281.756 192.325 281.324 192.325C280.891 192.325 280.471 191.892 280.369 191.23C280.268 190.569 280.56 189.958 280.993 189.958C281.425 189.958 281.858 190.378 281.934 191.052Z" fill="#2E353A"/>
<path d="M281.184 189.971L279.53 189.729C279.53 189.729 280.522 190.862 281.184 189.971Z" fill="#2E353A"/>
<path d="M288.691 188.927L287.037 188.698C287.037 188.698 288.029 189.818 288.691 188.927Z" fill="#2E353A"/>
<path d="M289.976 196.74C290.107 196.509 290.217 196.266 290.307 196.015C290.342 195.939 290.309 195.848 290.233 195.813C290.231 195.813 290.231 195.811 290.23 195.811C290.151 195.781 290.062 195.818 290.032 195.897C290.029 195.902 290.028 195.908 290.027 195.913C289.565 197.209 288.516 198.209 287.202 198.611C287.115 198.63 287.06 198.714 287.075 198.802C287.093 198.885 287.174 198.937 287.257 198.919C287.259 198.918 287.263 198.918 287.266 198.916C288.426 198.587 289.403 197.802 289.976 196.74Z" fill="#263238"/>
<path d="M295.358 171.418C290.077 170.145 284.606 172.869 284.606 172.869C284.606 172.869 278.499 178.302 279.899 183.557C280.544 183.082 281.274 182.732 282.049 182.527C281.836 180.535 282.391 178.537 283.601 176.94C283.274 178.672 283.344 180.456 283.805 182.158C286.355 181.906 288.929 182.21 291.35 183.048C291.35 183.048 292.406 180.872 291.35 176.152C292.729 178.613 293.456 181.385 293.462 184.206C293.526 189.093 299.824 190.276 299.824 190.276C299.824 190.276 303.755 189.856 303.717 184.588C303.679 179.32 300.638 172.779 295.358 171.418Z" fill="#263238"/>
<path d="M293.029 171.151C293.029 171.151 290.485 164.966 285.561 166.481C280.637 167.995 289.289 167.982 293.029 171.151Z" fill="#263238"/>
<path d="M304.519 189.627C304.276 191.204 303.414 192.618 302.127 193.559C300.409 194.832 298.831 193.432 298.691 191.434C298.577 189.64 299.328 186.828 301.351 186.344C302.828 186.065 304.253 187.038 304.532 188.515C304.599 188.87 304.594 189.235 304.519 189.589V189.627Z" fill="#B97964"/>
<path d="M319.952 212.596C316.059 211.323 310.728 226.173 308.501 230.805C307.585 232.726 306.109 237.027 304.989 240.425C304.045 243.376 301.693 245.661 298.717 246.52L277.863 252.437L269.389 249.892C268.754 249.699 268.064 249.807 267.518 250.185L263.256 253.086C262.624 253.52 262.247 254.24 262.251 255.008C262.227 256.258 263.222 257.292 264.472 257.316C264.537 257.317 264.604 257.315 264.668 257.311L277.265 256.318C277.265 256.318 297.622 257.502 306.529 252.501C315.435 247.5 326.709 214.912 319.952 212.596Z" fill="#B97964"/>
<path d="M303.717 257.362H231.447C230.358 257.362 229.475 258.245 229.475 259.334C229.475 260.423 230.358 261.307 231.447 261.307H303.717C304.807 261.307 305.69 260.423 305.69 259.334C305.69 258.245 304.807 257.362 303.717 257.362Z" fill="#263238"/>
<g opacity="0.3">
<path d="M303.717 257.362H231.447C230.358 257.362 229.475 258.245 229.475 259.334C229.475 260.423 230.358 261.307 231.447 261.307H303.717C304.807 261.307 305.69 260.423 305.69 259.334C305.69 258.245 304.807 257.362 303.717 257.362Z" fill="white"/>
</g>
<path d="M232.516 260.098H257.187C257.7 260.106 258.122 259.697 258.131 259.184C258.134 259.062 258.111 258.94 258.065 258.825L244.553 220.154C244.179 219.073 243.152 218.354 242.008 218.373H217.337C216.817 218.375 216.397 218.798 216.399 219.318C216.399 219.43 216.42 219.541 216.459 219.645L230.01 258.354C230.393 259.408 231.396 260.105 232.516 260.098Z" fill="#263238"/>
<g opacity="0.5">
<path d="M232.516 260.098H257.187C257.7 260.106 258.122 259.697 258.131 259.184C258.134 259.062 258.111 258.94 258.065 258.825L244.553 220.154C244.179 219.073 243.152 218.354 242.008 218.373H217.337C216.817 218.375 216.397 218.798 216.399 219.318C216.399 219.43 216.42 219.541 216.459 219.645L230.01 258.354C230.393 259.408 231.396 260.105 232.516 260.098Z" fill="white"/>
</g>
<path d="M231.32 260.098H256.029C256.542 260.106 256.965 259.697 256.973 259.184C256.976 259.062 256.953 258.94 256.907 258.825L243.369 220.154C242.989 219.078 241.966 218.361 240.825 218.373H216.154C215.633 218.368 215.208 218.785 215.203 219.305C215.202 219.421 215.222 219.537 215.263 219.645L228.814 258.329C229.19 259.39 230.194 260.098 231.32 260.098Z" fill="#263238"/>
<path d="M234.885 236.632C235.756 236.333 236.866 237.268 237.368 238.724C237.869 240.179 237.569 241.602 236.699 241.901C235.828 242.2 234.717 241.265 234.216 239.809C233.715 238.353 234.015 236.931 234.885 236.632Z" fill="white"/>
<g opacity="0.2">
<path d="M260.394 261.307C259.304 261.307 258.421 260.423 258.421 259.334C258.421 258.245 259.304 257.362 260.394 257.362H303.654C304.743 257.362 305.626 258.245 305.626 259.334C305.626 260.423 304.743 261.307 303.654 261.307H260.394Z" fill="white"/>
</g>
<path d="M475.6 410.645C477.04 410.612 478.18 409.419 478.147 407.978C478.147 407.952 478.146 407.924 478.145 407.897L471.07 269.819H463.589L472.953 408.215C473.016 409.616 474.199 410.703 475.6 410.645Z" fill="#263238"/>
<g opacity="0.5">
<path d="M475.6 410.645C477.04 410.612 478.18 409.419 478.147 407.978C478.147 407.952 478.146 407.924 478.145 407.897L471.07 269.819H463.589L472.953 408.215C473.016 409.616 474.199 410.703 475.6 410.645Z" fill="white"/>
</g>
<g opacity="0.2">
<path d="M471.121 269.87H463.64L464.263 279.07H471.592L471.121 269.87Z" fill="black"/>
</g>
<path d="M371.025 410.645C369.585 410.612 368.445 409.419 368.478 407.978C368.478 407.951 368.479 407.923 368.48 407.897L375.516 269.87H382.998L373.646 408.266C373.526 409.621 372.385 410.657 371.025 410.645Z" fill="#263238"/>
<g opacity="0.5">
<path d="M371.025 410.645C369.585 410.612 368.445 409.419 368.478 407.978C368.478 407.951 368.479 407.923 368.48 407.897L375.516 269.87H382.998L373.646 408.266C373.526 409.621 372.385 410.657 371.025 410.645Z" fill="white"/>
</g>
<g opacity="0.2">
<path d="M375.033 279.07H382.361L382.985 269.87H375.503L375.033 279.07Z" fill="black"/>
</g>
<path d="M204.537 410.645C205.977 410.612 207.117 409.419 207.084 407.978C207.084 407.951 207.083 407.923 207.082 407.897L200.058 269.87H192.577L201.928 408.266C202.048 409.616 203.182 410.65 204.537 410.645Z" fill="#263238"/>
<g opacity="0.5">
<path d="M204.537 410.645C205.977 410.612 207.117 409.419 207.084 407.978C207.084 407.951 207.083 407.923 207.082 407.897L200.058 269.87H192.577L201.928 408.266C202.048 409.616 203.182 410.65 204.537 410.645Z" fill="white"/>
</g>
<g opacity="0.2">
<path d="M200.058 269.87H192.577L193.2 279.07H200.529L200.058 269.87Z" fill="black"/>
</g>
<path d="M99.9618 410.645C98.5215 410.612 97.3814 409.419 97.4145 407.978C97.4145 407.951 97.4158 407.923 97.4171 407.897L104.504 269.87H111.986L102.621 408.266C102.532 409.652 101.349 410.71 99.9618 410.645Z" fill="#263238"/>
<g opacity="0.5">
<path d="M99.9618 410.645C98.5215 410.612 97.3814 409.419 97.4145 407.978C97.4145 407.951 97.4158 407.923 97.4171 407.897L104.504 269.87H111.986L102.621 408.266C102.532 409.652 101.349 410.71 99.9618 410.645Z" fill="white"/>
</g>
<g opacity="0.2">
<path d="M103.97 279.07H111.299L111.922 269.87H104.44L103.97 279.07Z" fill="black"/>
</g>
<path d="M97.2262 265.493H477.14V269.87H97.2262V265.493Z" fill="#263238"/>
<g opacity="0.3">
<path d="M97.2262 265.493H477.14V269.87H97.2262V265.493Z" fill="white"/>
</g>
<g opacity="0.2">
<path d="M368.289 265.493H477.14V269.87H368.289V265.493Z" fill="black"/>
</g>
<path d="M87.4418 261.115H486.924V265.493H87.4418V261.115Z" fill="#407BFF"/>
<g opacity="0.3">
<path d="M358.505 261.115H486.924V265.493H358.505V261.115Z" fill="black"/>
</g>
<path d="M398.584 261.306H379.6C378.35 261.306 377.336 260.292 377.336 259.041C377.336 257.791 378.35 256.776 379.6 256.776H398.584C399.835 256.776 400.849 257.791 400.849 259.041C400.849 260.292 399.835 261.306 398.584 261.306Z" fill="#407BFF"/>
<g opacity="0.3">
<path d="M398.584 261.306H379.6C378.35 261.306 377.336 260.292 377.336 259.041C377.336 257.791 378.35 256.776 379.6 256.776H398.584C399.835 256.776 400.849 257.791 400.849 259.041C400.849 260.292 399.835 261.306 398.584 261.306Z" fill="white"/>
</g>
<path d="M380.771 261.306H361.8C360.547 261.306 359.529 260.295 359.523 259.041C359.529 257.788 360.547 256.776 361.8 256.776H380.771C382.024 256.776 383.042 257.788 383.049 259.041C383.042 260.295 382.024 261.306 380.771 261.306Z" fill="#407BFF"/>
<g opacity="0.5">
<path d="M380.771 261.306H361.8C360.547 261.306 359.529 260.295 359.523 259.041C359.529 257.788 360.547 256.776 361.8 256.776H380.771C382.024 256.776 383.042 257.788 383.049 259.041C383.042 260.295 382.024 261.306 380.771 261.306Z" fill="white"/>
</g>
<path d="M317.141 192.401H313.489C310.679 192.31 308.328 194.512 308.237 197.322C308.228 197.587 308.239 197.853 308.272 198.115L311.389 233.744C311.711 236.955 314.386 239.416 317.611 239.471H321.263L317.141 192.401Z" fill="#407BFF"/>
<path d="M317.141 192.401H313.489C310.679 192.31 308.328 194.512 308.237 197.322C308.228 197.587 308.239 197.853 308.272 198.115L311.389 233.744C311.711 236.955 314.386 239.416 317.611 239.471H321.263L317.141 192.401Z" fill="#407BFF"/>
<path d="M348.021 255.3H343.44L345.438 232.497H350.018L348.021 255.3Z" fill="#263238"/>
<g opacity="0.3">
<path d="M348.021 255.3H343.44L345.438 232.497H350.018L348.021 255.3Z" fill="white"/>
</g>
<path d="M379.626 239.483H320.105C316.88 239.429 314.205 236.968 313.883 233.757L310.766 198.128C310.42 195.338 312.401 192.796 315.19 192.45C315.452 192.417 315.718 192.405 315.983 192.414H375.516C378.738 192.469 381.41 194.922 381.738 198.128L384.855 233.757C385.165 236.594 383.117 239.145 380.281 239.454C380.064 239.478 379.845 239.487 379.626 239.483Z" fill="#407BFF"/>
<g opacity="0.5">
<path d="M379.626 239.483H320.105C316.88 239.429 314.205 236.968 313.883 233.757L310.766 198.128C310.42 195.338 312.401 192.796 315.19 192.45C315.452 192.417 315.718 192.405 315.983 192.414H375.516C378.738 192.469 381.41 194.922 381.738 198.128L384.855 233.757C385.165 236.594 383.117 239.145 380.281 239.454C380.064 239.478 379.845 239.487 379.626 239.483Z" fill="white"/>
</g>
<g opacity="0.5">
<path d="M375.707 194.704H316.186C314.486 194.674 313.082 196.028 313.051 197.728C313.049 197.858 313.055 197.986 313.069 198.115L316.186 233.744C316.385 235.659 317.978 237.127 319.901 237.167H379.422C381.13 237.192 382.533 235.826 382.557 234.118C382.559 233.994 382.554 233.869 382.54 233.744L379.422 198.115C379.217 196.205 377.627 194.745 375.707 194.704Z" fill="white"/>
</g>
<path d="M334.712 261.306C334.928 254.669 340.483 249.462 347.12 249.679C353.453 249.885 358.54 254.972 358.747 261.306H334.712Z" fill="#407BFF"/>
<g opacity="0.5">
<path d="M334.712 261.306C334.928 254.669 340.483 249.462 347.12 249.679C353.453 249.885 358.54 254.972 358.747 261.306H334.712Z" fill="white"/>
</g>
<path d="M362.284 203.459H329.546C328.914 203.448 328.393 203.952 328.382 204.584C328.381 204.634 328.383 204.683 328.388 204.732C328.465 205.444 329.059 205.989 329.775 206.004H362.513C363.145 206.016 363.666 205.512 363.677 204.879C363.678 204.83 363.676 204.78 363.671 204.732C363.6 204.017 363.003 203.468 362.284 203.459Z" fill="white"/>
<path d="M358.225 208.791H330.017C329.384 208.78 328.864 209.283 328.853 209.916C328.851 209.965 328.854 210.015 328.859 210.063C328.93 210.779 329.527 211.327 330.246 211.336H358.454C359.086 211.347 359.607 210.843 359.618 210.211C359.619 210.161 359.617 210.112 359.612 210.063C359.536 209.351 358.941 208.806 358.225 208.791Z" fill="white"/>
<path d="M361.52 214.123H330.488C329.855 214.111 329.335 214.615 329.323 215.248C329.322 215.297 329.325 215.347 329.33 215.395C329.389 216.112 329.985 216.664 330.704 216.668H361.711C362.336 216.687 362.858 216.194 362.877 215.569C362.878 215.511 362.877 215.454 362.869 215.395C362.805 214.691 362.226 214.146 361.52 214.123Z" fill="white"/>
<path d="M357.423 219.442H330.984C330.352 219.43 329.831 219.934 329.82 220.567C329.818 220.616 329.821 220.666 329.826 220.714C329.902 221.427 330.497 221.971 331.213 221.987H357.703C358.336 221.998 358.856 221.494 358.868 220.862C358.869 220.812 358.866 220.762 358.861 220.714C358.789 219.98 358.161 219.425 357.423 219.442Z" fill="white"/>
<path d="M362.284 203.459H329.546C328.914 203.448 328.393 203.952 328.382 204.584C328.381 204.634 328.383 204.683 328.388 204.732C328.465 205.444 329.059 205.989 329.775 206.004H362.513C363.145 206.016 363.666 205.512 363.677 204.879C363.678 204.83 363.676 204.78 363.671 204.732C363.6 204.017 363.003 203.468 362.284 203.459Z" fill="white"/>
<path d="M358.225 208.791H330.017C329.384 208.779 328.864 209.283 328.853 209.916C328.851 209.965 328.854 210.015 328.859 210.063C328.93 210.778 329.527 211.327 330.246 211.336H358.454C359.086 211.347 359.607 210.843 359.618 210.211C359.619 210.161 359.617 210.112 359.612 210.063C359.536 209.351 358.941 208.806 358.225 208.791Z" fill="white"/>
<path d="M361.521 214.123H330.488C329.855 214.111 329.335 214.615 329.324 215.248C329.322 215.297 329.325 215.347 329.33 215.395C329.39 216.112 329.985 216.664 330.704 216.668H361.711C362.336 216.687 362.858 216.194 362.877 215.569C362.878 215.511 362.877 215.454 362.869 215.395C362.806 214.691 362.227 214.146 361.521 214.123Z" fill="white"/>
<path d="M357.423 219.442H330.984C330.352 219.43 329.831 219.934 329.82 220.567C329.818 220.616 329.821 220.666 329.826 220.714C329.902 221.427 330.497 221.971 331.213 221.987H357.703C358.336 221.998 358.856 221.494 358.868 220.862C358.869 220.812 358.866 220.762 358.861 220.714C358.789 219.98 358.161 219.425 357.423 219.442Z" fill="white"/>
<path d="M428.752 173.594C428.752 173.594 421.219 175.032 421.347 170.438C421.474 165.844 429.248 167.982 429.248 167.982L428.752 173.594Z" fill="#1A2E35"/>
<g opacity="0.4">
<path d="M428.752 173.594C428.752 173.594 421.219 175.032 421.347 170.438C421.474 165.844 429.248 167.982 429.248 167.982L428.752 173.594Z" fill="black"/>
</g>
<path d="M424.044 184.588L420.596 190.009C421.882 190.823 423.478 190.979 424.897 190.429L424.044 184.588Z" fill="#A24E3F"/>
<path d="M421.957 183.837C421.957 184.537 422.314 185.11 422.772 185.11C423.23 185.11 423.637 184.525 423.624 183.837C423.611 183.15 423.281 182.565 422.81 182.565C422.339 182.565 421.983 183.138 421.957 183.837Z" fill="#1A2E35"/>
<path d="M448.919 179.473C449.224 188.762 449.555 192.694 445.343 197.873C438.676 203.37 427.53 204.019 424.439 195.01C421.678 186.891 421.639 173.098 430.33 168.517C436.564 165.274 444.247 167.701 447.489 173.936C448.379 175.649 448.868 177.542 448.919 179.473Z" fill="#B97964"/>
<g opacity="0.2">
<path d="M435.877 201.83L435.813 201.372C435.669 200.442 434.798 199.803 433.868 199.947C433.807 199.956 433.747 199.97 433.688 199.985L429.871 201.016C431.774 201.783 433.839 202.063 435.877 201.83Z" fill="black"/>
</g>
<path d="M424.477 180.669C424.352 180.685 424.227 180.638 424.146 180.542C423.571 179.824 422.685 179.426 421.767 179.473C421.569 179.488 421.391 179.351 421.359 179.155C421.33 178.96 421.465 178.779 421.66 178.75C421.666 178.749 421.671 178.747 421.678 178.747C422.835 178.644 423.969 179.12 424.706 180.02C424.85 180.164 424.85 180.398 424.706 180.542C424.651 180.615 424.568 180.661 424.477 180.669Z" fill="#1A2E35"/>
<path d="M435.533 199.489L437.569 213.27L449.084 210.89L445.394 196.779L435.533 199.489Z" fill="#B97964"/>
<path d="M430.902 186.115L428.955 187.668C428.128 184.136 428.385 180.437 429.693 177.055L427.378 173.53L427.734 171.151C427.734 171.151 424.133 165.323 426.945 163.592C429.757 161.862 431.551 165.463 431.551 165.463C431.551 165.463 433.485 159.711 436.87 160.5C440.254 161.289 438.524 164.89 438.524 164.89C438.524 164.89 443.995 160.933 446.578 162.88C449.161 164.826 445.929 167.55 445.929 167.55C445.929 167.55 452.481 167.702 452.698 170.285C452.914 172.869 450.026 173.098 450.026 173.098C450.026 173.098 454.352 174.599 454.275 176.915C454.199 179.231 450.827 179.358 450.827 179.358C450.827 179.358 455.217 182.158 454.275 184.601C453.788 185.984 452.284 186.725 450.891 186.268C450.891 186.268 453.168 189.182 452.405 190.76C451.86 191.709 450.809 192.252 449.72 192.147L445.98 198.789C443.968 198.108 441.745 198.545 440.139 199.934L433.421 188.889L430.902 186.115Z" fill="#1A2E35"/>
<path d="M429.744 183.608C429.411 185.48 429.837 187.408 430.928 188.966C432.378 191.014 434.745 190.098 435.635 187.909C436.475 185.924 436.717 182.476 434.605 181.203C433.07 180.292 431.087 180.797 430.176 182.332C429.944 182.723 429.796 183.157 429.744 183.608Z" fill="#B97964"/>
<path d="M451.412 209.389L449.135 202.95C443.216 200.737 436.577 201.697 431.525 205.495L437.989 209.313L451.412 209.389Z" fill="#263238"/>
<g opacity="0.2">
<path d="M450.356 206.424C445.155 205.204 439.709 205.554 434.706 207.429L437.989 209.389H451.412L450.356 206.424Z" fill="black"/>
</g>
<path d="M411.142 251.826L402.643 247.563C402.146 247.341 401.576 247.341 401.078 247.563L394.131 250.312C393.439 250.579 392.967 251.226 392.922 251.966L392.795 254.231C392.736 255.291 393.548 256.196 394.608 256.255C394.856 256.269 395.104 256.234 395.34 256.153L397.884 255.262C401.985 256.919 406.543 257.054 410.735 255.644L411.142 251.826Z" fill="#B97964"/>
<path d="M378.863 252.323L370.427 248.009C369.938 247.766 369.368 247.743 368.862 247.945L361.902 250.757C361.211 251.037 360.746 251.693 360.706 252.437L360.579 254.728C360.514 255.786 361.319 256.699 362.378 256.764C362.631 256.779 362.884 256.744 363.124 256.662L365.668 255.771C369.767 257.442 374.329 257.578 378.519 256.153L378.863 252.323Z" fill="#B97964"/>
<path d="M456.069 211.819C451.909 215.357 441.501 225.74 427.988 250.058H410.722C410.722 250.058 408.279 252.043 409.285 257.044C409.285 257.044 426.996 263.342 431.805 261.192C436.615 259.041 452.163 235.208 459.136 226.72C461.553 223.781 465.714 219.849 459.708 212.201C458.842 211.094 457.242 210.899 456.135 211.766C456.112 211.784 456.091 211.802 456.069 211.819Z" fill="#263238"/>
<g opacity="0.2">
<path d="M436.78 245.935L432.633 242.028C431.131 244.573 429.579 247.182 427.988 250.058H423.866L426.487 261.51C428.277 261.846 430.123 261.75 431.869 261.23C433.141 260.657 435.139 258.596 437.531 255.707L436.78 245.935Z" fill="black"/>
</g>
<path d="M433.65 377.968L437.595 397.081L445.369 395.923L443.498 377.319L433.65 377.968Z" fill="#B97964"/>
<g opacity="0.2">
<path d="M444.733 389.586L443.498 377.319L433.65 377.968L436.119 389.917L444.733 389.586Z" fill="black"/>
</g>
<path d="M479.85 289.848C479.85 289.848 483.794 310.564 470.281 310.564C456.769 310.564 438.765 314.992 438.765 314.992C438.765 314.992 443.944 319.904 445.127 382.6L433.905 383.083C433.905 383.083 415.265 312.32 418.942 304.545C424.12 293.589 450.942 289.848 450.942 289.848H479.85Z" fill="#407BFF"/>
<path d="M432.607 380.869L445.572 380.488L446.234 386.812L433.434 387.372L432.607 380.869Z" fill="#407BFF"/>
<g opacity="0.5">
<path d="M432.607 380.869L445.572 380.488L446.234 386.812L433.434 387.372L432.607 380.869Z" fill="white"/>
</g>
<path d="M434.045 398.277C433.209 398.475 432.33 398.357 431.576 397.946C431.377 397.716 431.346 397.382 431.5 397.119C431.603 396.877 431.8 396.689 432.047 396.597C433.32 396.063 436.373 397.335 436.513 397.386C436.586 397.422 436.63 397.497 436.628 397.577C436.616 397.657 436.563 397.725 436.488 397.755C435.69 397.998 434.873 398.172 434.045 398.277ZM432.556 396.864C432.434 396.877 432.313 396.906 432.2 396.953C432.045 397.004 431.919 397.12 431.856 397.272C431.742 397.526 431.856 397.628 431.856 397.691C432.289 398.175 434.337 397.933 435.826 397.577C434.807 397.142 433.715 396.9 432.607 396.864H432.556Z" fill="#407BFF"/>
<path d="M436.513 397.755H436.424C435.406 397.45 433.256 395.923 433.319 394.994C433.319 394.765 433.447 394.485 433.968 394.358C434.35 394.276 434.748 394.35 435.075 394.561C435.918 395.363 436.488 396.409 436.704 397.552C436.733 397.607 436.733 397.674 436.704 397.73C436.654 397.782 436.574 397.793 436.513 397.755ZM434.134 394.714H434.045C433.714 394.79 433.701 394.93 433.688 394.981C433.688 395.528 435.152 396.75 436.233 397.233C436.026 396.324 435.541 395.502 434.846 394.879C434.647 394.738 434.401 394.68 434.159 394.714H434.134Z" fill="#407BFF"/>
<path d="M437.226 396.521L446.132 395.465C446.466 395.421 446.784 395.617 446.896 395.936L449.351 402.934C449.579 403.546 449.267 404.228 448.654 404.456C448.649 404.457 448.644 404.46 448.639 404.461L448.384 404.525C445.191 404.856 442.341 405.021 438.371 405.492C433.689 406.064 434.935 406.484 429.464 407.222C426.156 407.655 425.1 403.965 426.474 403.609C432.836 402.018 433.256 399.995 435.47 397.399C435.93 396.905 436.554 396.593 437.226 396.521Z" fill="#263238"/>
<g opacity="0.1">
<path d="M442.341 307.078H422.594L418.407 308.846C418.801 314.832 419.603 320.785 420.812 326.661L440.674 320.935C439.58 315.781 438.727 314.98 438.727 314.98C438.727 314.98 440.534 314.534 443.422 313.924L442.341 307.078Z" fill="black"/>
</g>
<g opacity="0.1">
<path d="M455.675 308.516C455.436 309.604 455.294 310.711 455.255 311.824C459.806 311.124 464.394 310.699 468.996 310.552C472.022 307.381 472.292 302.482 469.633 298.998L461.718 302.599L455.675 308.516Z" fill="black"/>
</g>
<path d="M410.888 383.096L418.217 400.911L425.367 399.473L420.456 380.411L410.888 383.096Z" fill="#B97964"/>
<g opacity="0.2">
<path d="M423.726 393.136L420.456 380.411L410.888 383.096L415.659 394.676L423.726 393.136Z" fill="black"/>
</g>
<path d="M470.116 291.032C470.116 291.032 474.073 311.748 460.548 311.748C447.023 311.748 406.46 324.218 406.46 324.218C406.46 324.218 412.427 326.42 422.784 384.254L411.066 386.914C411.066 386.914 381.802 323.849 385.453 316.074C390.632 305.131 441.183 291.032 441.183 291.032H470.116Z" fill="#407BFF"/>
<path d="M409.628 386.15L423.535 383.172L424.973 388.924L411.639 392.003L409.628 386.15Z" fill="#407BFF"/>
<g opacity="0.5">
<path d="M409.628 386.15L423.535 383.172L424.973 388.924L411.639 392.003L409.628 386.15Z" fill="white"/>
</g>
<path d="M413.802 401.738C412.969 401.923 412.099 401.805 411.346 401.407C411.144 401.172 411.113 400.835 411.27 400.567C411.373 400.326 411.57 400.137 411.817 400.046C413.089 399.511 416.143 400.784 416.27 400.835C416.344 400.871 416.392 400.944 416.397 401.025C416.391 401.108 416.336 401.178 416.257 401.204C415.456 401.452 414.634 401.631 413.802 401.738ZM412.326 400.313C412.202 400.323 412.083 400.354 411.969 400.402C411.81 400.446 411.682 400.565 411.626 400.72C411.511 400.975 411.626 401.076 411.626 401.14C412.058 401.624 414.107 401.394 415.596 401.025C414.561 400.579 413.452 400.333 412.326 400.3V400.313Z" fill="#407BFF"/>
<path d="M416.232 401.191H416.143C415.125 400.885 412.962 399.358 413.026 398.429C413.026 398.2 413.153 397.921 413.674 397.806C414.054 397.714 414.454 397.783 414.781 397.997C415.631 398.795 416.205 399.842 416.423 400.987C416.452 401.043 416.452 401.109 416.423 401.165C416.373 401.218 416.293 401.229 416.232 401.191ZM413.853 398.15H413.687C413.344 398.226 413.344 398.366 413.331 398.417C413.331 398.977 414.794 400.198 415.876 400.669C415.672 399.761 415.192 398.939 414.501 398.315C414.302 398.174 414.056 398.115 413.814 398.15H413.853Z" fill="#407BFF"/>
<path d="M416.944 399.956L425.787 398.9C426.122 398.852 426.444 399.05 426.551 399.371L429.019 406.37C429.24 406.992 428.916 407.675 428.294 407.897L428.052 407.96C424.858 408.291 422.008 408.457 418.039 408.94C413.344 409.5 414.603 409.92 409.132 410.658C405.824 411.103 404.755 407.4 406.142 407.044C412.504 405.466 412.924 403.43 415.125 400.834C415.606 400.332 416.252 400.019 416.944 399.956Z" fill="#263238"/>
<path d="M422.174 211.069C422.146 209.417 423.46 208.055 425.112 208.027C425.15 208.026 425.189 208.026 425.227 208.027L451.298 208.536C457.66 208.664 463.475 212.162 466.566 217.724C472.61 228.514 480.562 250.592 480.371 292.151H437.111C437.111 292.151 422.428 238.211 422.174 211.069Z" fill="#263238"/>
<g opacity="0.4">
<path d="M422.81 221.554C423.433 227.802 424.451 234.686 425.685 241.646C432.238 227.916 428.726 216.68 428.726 216.68L422.81 221.554Z" fill="black"/>
</g>
<path d="M422.263 209.185C419.222 212.736 414.501 219.836 400.2 245.871L378.328 250.528C378.328 250.528 375.885 252.539 376.891 257.603C376.891 257.603 400.366 261.637 405.175 259.461C409.985 257.285 422.263 238.809 427.899 229.252C430.228 225.308 431.462 217.533 424.464 209.211C423.949 208.597 423.034 208.516 422.421 209.031C422.365 209.078 422.311 209.131 422.263 209.185Z" fill="#263238"/>
<path d="M498.413 410.391L466.337 398.582L433.917 410.404C433.026 410.727 432.041 410.266 431.718 409.374C431.649 409.186 431.615 408.987 431.615 408.788C431.62 408.122 432.005 407.519 432.607 407.235L466.337 391.558L499.737 407.21C500.336 407.495 500.716 408.099 500.716 408.762C500.734 409.704 499.985 410.481 499.043 410.499C498.828 410.503 498.614 410.466 498.413 410.391Z" fill="#263238"/>
<g opacity="0.3">
<path d="M498.413 410.391L466.337 398.582L433.917 410.404C433.026 410.727 432.041 410.266 431.718 409.374C431.649 409.186 431.615 408.987 431.615 408.788C431.62 408.122 432.005 407.519 432.607 407.235L466.337 391.558L499.737 407.21C500.336 407.495 500.716 408.099 500.716 408.762C500.734 409.704 499.985 410.481 499.043 410.499C498.828 410.503 498.614 410.466 498.413 410.391Z" fill="white"/>
</g>
<g opacity="0.2">
<path d="M458.779 401.343L466.337 398.582L473.551 401.242V394.968L466.337 391.583L458.779 395.096V401.343Z" fill="black"/>
</g>
<path d="M466.172 410.645C464.715 410.647 463.491 409.55 463.335 408.1L462.431 398.595V319.701H469.913V398.595L468.997 408.1C468.841 409.545 467.625 410.64 466.172 410.645Z" fill="#263238"/>
<g opacity="0.3">
<path d="M466.172 410.645C464.715 410.647 463.491 409.55 463.335 408.1L462.431 398.595V319.701H469.913V398.595L468.997 408.1C468.841 409.545 467.625 410.64 466.172 410.645Z" fill="white"/>
</g>
<g opacity="0.2">
<path d="M462.431 319.663H469.913V328.85H462.431V319.663Z" fill="black"/>
</g>
<path d="M518.199 312.486C509.734 310.329 501.052 309.134 492.319 308.923C483.323 308.694 449.695 308.923 441.704 308.923C431.965 308.916 422.262 310.127 412.822 312.524C406.893 314.038 408.712 322.589 414.094 322.704C414.578 322.704 516.265 322.704 516.634 322.704C522.206 322.907 524.255 314.026 518.199 312.486Z" fill="#407BFF"/>
<g opacity="0.3">
<path d="M518.199 312.486C509.734 310.329 501.052 309.134 492.319 308.923C483.323 308.694 449.695 308.923 441.704 308.923C431.965 308.916 422.262 310.127 412.822 312.524C406.893 314.038 408.712 322.589 414.094 322.704C414.578 322.704 516.265 322.704 516.634 322.704C522.206 322.907 524.255 314.026 518.199 312.486Z" fill="black"/>
</g>
<path d="M415.57 322.475C432.715 318.11 450.681 318.11 467.826 322.475C474.289 324.116 477.05 314.127 470.587 312.486C451.633 307.676 431.776 307.676 412.822 312.486C406.371 314.127 409.107 324.129 415.57 322.475Z" fill="#407BFF"/>
<path d="M415.57 322.475C432.715 318.11 450.681 318.11 467.826 322.475C474.289 324.116 477.05 314.127 470.587 312.486C451.633 307.676 431.776 307.676 412.822 312.486C406.371 314.127 409.107 324.129 415.57 322.475Z" fill="white"/>
<path d="M490.996 238.363C489.807 238.337 488.703 238.974 488.133 240.018C474.45 262.961 469.536 290.082 474.302 316.367C474.433 317.758 475.566 318.842 476.961 318.912C479.035 319.052 515.947 318.912 517.295 318.912C519.346 318.962 521.049 317.338 521.098 315.287C521.103 315.052 521.087 314.817 521.049 314.585C516.738 290.11 521.405 264.902 534.192 243.593C535.77 240.972 533.441 238.503 531.088 238.503C530.019 238.338 493.349 238.414 490.996 238.363Z" fill="#407BFF"/>
<g opacity="0.2">
<path d="M490.996 238.363C489.807 238.337 488.703 238.974 488.133 240.018C474.45 262.961 469.536 290.082 474.302 316.367C474.433 317.758 475.566 318.842 476.961 318.912C479.035 319.052 515.947 318.912 517.295 318.912C519.346 318.962 521.049 317.338 521.098 315.287C521.103 315.052 521.087 314.817 521.049 314.585C516.738 290.11 521.405 264.902 534.192 243.593C535.77 240.972 533.441 238.503 531.088 238.503C530.019 238.338 493.349 238.414 490.996 238.363Z" fill="black"/>
</g>
<path d="M480.957 314.484C476.651 290.009 481.318 264.802 494.1 243.492C496.403 239.674 490.423 236.2 488.133 240.018C474.45 262.961 469.536 290.082 474.302 316.367C475.091 320.732 481.746 318.912 480.957 314.535V314.484Z" fill="#407BFF"/>
<path d="M480.957 314.484C476.651 290.009 481.318 264.802 494.1 243.492C496.403 239.674 490.423 236.2 488.133 240.018C474.45 262.961 469.536 290.082 474.302 316.367C475.091 320.732 481.746 318.912 480.957 314.535V314.484Z" fill="white"/>
</svg>
