<svg width="20" height="17" viewBox="0 0 20 17" fill="none" xmlns="http://www.w3.org/2000/svg">
<path d="M18 0.231445H2C0.9 0.231445 0 1.13145 0 2.23145V14.2314C0 15.3314 0.9 16.2314 2 16.2314H18C19.1 16.2314 20 15.3314 20 14.2314V2.23145C20 1.13145 19.1 0.231445 18 0.231445ZM17.6 4.48145L11.06 8.57145C10.41 8.98145 9.59 8.98145 8.94 8.57145L2.4 4.48145C2.15 4.32145 2 4.05145 2 3.76145C2 3.09145 2.73 2.69145 3.3 3.04145L10 7.23145L16.7 3.04145C17.27 2.69145 18 3.09145 18 3.76145C18 4.05145 17.85 4.32145 17.6 4.48145Z" fill="#F6F6F6"/>
</svg>
