<svg width="162" height="38" viewBox="0 0 162 38" fill="none" xmlns="http://www.w3.org/2000/svg">
<path d="M78.0081 36.25V0H82.9667V36.25H78.0081Z" fill="white"/>
<path d="M97.1052 36.8542C95.1404 36.8542 93.5187 36.5018 92.2401 35.7969C90.9614 35.092 90.0102 34.169 89.3865 33.0278C88.7628 31.853 88.4509 30.5776 88.4509 29.2014C88.4509 26.7847 89.3241 24.8716 91.0706 23.4618C92.817 22.0521 95.312 21.3472 98.5554 21.3472H104.637V20.8941C104.637 18.9474 104.138 17.4873 103.14 16.5139C102.173 15.5405 100.91 15.0538 99.3506 15.0538C97.9784 15.0538 96.7777 15.423 95.7486 16.1615C94.7506 16.8663 94.1425 17.9236 93.9242 19.3333H88.9655C89.1214 17.5208 89.6828 15.9769 90.6496 14.7014C91.6475 13.3924 92.895 12.4022 94.392 11.7309C95.9201 11.0261 97.5886 10.6736 99.3974 10.6736C102.641 10.6736 105.151 11.5967 106.929 13.4427C108.707 15.2552 109.595 17.739 109.595 20.8941V36.25H105.292L104.871 31.9705C104.216 33.3467 103.265 34.5047 102.017 35.4445C100.77 36.3843 99.1323 36.8542 97.1052 36.8542ZM98.0876 32.5243C99.4286 32.5243 100.551 32.1887 101.456 31.5174C102.391 30.8125 103.109 29.8895 103.608 28.7483C104.138 27.6071 104.465 26.3484 104.59 24.9722H99.0699C97.1052 24.9722 95.7018 25.3415 94.8597 26.0799C94.0489 26.8183 93.6435 27.7413 93.6435 28.849C93.6435 29.9902 94.0333 30.8964 94.813 31.5677C95.6238 32.2055 96.7153 32.5243 98.0876 32.5243Z" fill="white"/>
<path d="M128.429 36.8542C126.62 36.8542 125.014 36.4682 123.61 35.6962C122.238 34.9242 121.147 33.8334 120.336 32.4236L119.821 36.25H115.377V0H120.336V15.1545C121.084 13.9798 122.113 12.9392 123.423 12.033C124.733 11.1267 126.417 10.6736 128.475 10.6736C130.721 10.6736 132.701 11.2442 134.416 12.3854C136.132 13.5266 137.473 15.0874 138.44 17.0677C139.437 19.048 139.936 21.2969 139.936 23.8143C139.936 26.3316 139.437 28.5805 138.44 30.5608C137.473 32.5076 136.132 34.0515 134.416 35.1927C132.701 36.3004 130.705 36.8542 128.429 36.8542ZM127.587 32.2223C129.707 32.2223 131.454 31.4503 132.826 29.9063C134.198 28.3287 134.884 26.2813 134.884 23.7639C134.884 22.1192 134.572 20.6592 133.949 19.3837C133.325 18.1082 132.467 17.1181 131.376 16.4132C130.284 15.6748 129.021 15.3056 127.587 15.3056C125.466 15.3056 123.719 16.0943 122.347 17.6719C121.006 19.2494 120.336 21.2801 120.336 23.7639C120.336 26.2813 121.006 28.3287 122.347 29.9063C123.719 31.4503 125.466 32.2223 127.587 32.2223Z" fill="white"/>
<path d="M143.756 36.25V31.9202L156.153 15.7083H143.943V11.2778H161.766V15.6077L149.276 31.8195H162V36.25H143.756Z" fill="white"/>
<path d="M39.3564 36.3909C37.1345 36.3909 35.1317 35.852 33.3479 34.7742C31.5955 33.6628 30.2029 32.1303 29.1702 30.1768C28.1688 28.1897 27.6681 25.8826 27.6681 23.2555C27.6681 20.6284 28.1688 18.3381 29.1702 16.3847C30.2029 14.3975 31.5955 12.8651 33.3479 11.7873C35.1317 10.6758 37.1345 10.1201 39.3564 10.1201C42.1102 10.1201 44.426 10.8948 46.3036 12.4441C48.2126 13.9934 49.4174 16.0647 49.9181 18.6581H45.8812C45.5682 17.1088 44.8015 15.9132 43.5811 15.0711C42.3606 14.1955 40.9367 13.7576 39.3094 13.7576C37.9951 13.7576 36.759 14.1112 35.6011 14.8185C34.4432 15.5258 33.5044 16.5868 32.7846 18.0013C32.0649 19.4159 31.705 21.1673 31.705 23.2555C31.705 25.3437 32.0649 27.0951 32.7846 28.5096C33.5044 29.9242 34.4432 31.002 35.6011 31.743C36.759 32.4503 37.9951 32.8039 39.3094 32.8039C40.9367 32.8039 42.3606 32.3829 43.5811 31.5409C44.8015 30.6652 45.5682 29.4359 45.8812 27.8529H49.9181C49.4487 30.3789 48.2595 32.4334 46.3506 34.0164C44.4416 35.5994 42.1102 36.3909 39.3564 36.3909Z" fill="#0CDC12"/>
<path d="M63.9643 36.8544C61.7812 36.8544 59.8165 36.3174 58.07 35.2433C56.3236 34.1692 54.9358 32.6588 53.9066 30.712C52.9087 28.7317 52.4097 26.4157 52.4097 23.7641C52.4097 21.1125 52.9242 18.8133 53.9534 16.8665C54.9826 14.8862 56.3704 13.359 58.1168 12.2849C59.8944 11.2109 61.8748 10.6738 64.0578 10.6738C66.2409 10.6738 68.2056 11.2109 69.9521 12.2849C71.6985 13.359 73.0707 14.8862 74.0687 16.8665C75.0979 18.8133 75.6124 21.1125 75.6124 23.7641C75.6124 26.4157 75.0979 28.7317 74.0687 30.712C73.0396 32.6588 71.6362 34.1692 69.8585 35.2433C68.1121 36.3174 66.1473 36.8544 63.9643 36.8544ZM63.9643 33.2294C65.3053 33.2294 66.5528 32.877 67.7067 32.1721C68.8606 31.4673 69.7962 30.41 70.5135 29.0002C71.2307 27.5905 71.5894 25.8451 71.5894 23.7641C71.5894 21.6831 71.2307 19.9377 70.5135 18.528C69.8273 17.1183 68.9073 16.061 67.7534 15.3561C66.5995 14.6513 65.3677 14.2988 64.0578 14.2988C62.7168 14.2988 61.4694 14.6513 60.3155 15.3561C59.1616 16.061 58.226 17.1183 57.5087 18.528C56.7914 19.9377 56.4327 21.6831 56.4327 23.7641C56.4327 25.8451 56.7914 27.5905 57.5087 29.0002C58.226 30.41 59.146 31.4673 60.2687 32.1721C61.4226 32.877 62.6544 33.2294 63.9643 33.2294Z" fill="#0CDC12"/>
<path d="M19.9357 28.6153C19.5715 29.4105 19.0914 30.1378 18.5135 30.7695C17.7341 31.6266 16.7995 32.3025 15.7677 32.7554C14.7358 33.2083 13.6287 33.4285 12.5146 33.4025C11.4009 33.4255 10.2945 33.2039 9.26308 32.7512C8.23164 32.2985 7.2968 31.6242 6.51568 30.7695C5.24468 29.2529 4.31367 27.4428 3.79422 25.4785C5.83717 27.5491 8.51026 28.7491 11.3148 28.8547C14.0772 29.0058 17.6298 26.6689 20.398 26.1524C21.8815 25.8575 23.4104 25.9746 24.8402 26.4926C24.9447 25.7717 24.9936 25.0427 24.9865 24.3132C25.0177 22.5381 24.7096 20.7751 24.0814 19.1335C23.4532 17.4919 22.5182 16.0068 21.3345 14.7703C20.1883 13.4994 18.8122 12.495 17.2912 11.8189C15.7702 11.1429 14.1365 10.8096 12.4912 10.8398C10.8467 10.8101 9.21412 11.1436 7.69413 11.8197C6.17413 12.4957 4.79904 13.4999 3.65376 14.7703C2.47295 16.0039 1.53965 17.4849 0.911518 19.1219C0.283385 20.7589 -0.0262484 22.5171 0.00174172 24.288C-0.0257918 26.0578 0.284074 27.8149 0.912204 29.4508C1.54033 31.0867 2.47339 32.5667 3.65376 33.7993C4.79904 35.0697 6.17413 36.0739 7.69413 36.75C9.21412 37.426 10.8467 37.7595 12.4912 37.7299C14.1365 37.76 15.7702 37.4267 17.2912 36.7507C18.8122 36.0747 20.1883 35.0702 21.3345 33.7993C22.0821 32.8887 22.7668 31.9202 23.3829 30.9018L19.9357 28.6153ZM21.3345 22.0833C21.3345 22.0833 20.8604 21.6172 19.4558 22.5872C7.62182 30.7758 5.9948 20.2315 5.9948 20.2315C7.7802 19.9367 9.59252 19.8796 11.3909 20.0614C13.2169 20.2629 13.7963 20.3574 14.7913 20.5212C14.9961 20.5212 15.1483 20.2063 14.7913 20.1118C11.8911 19.4731 8.92837 19.2256 5.97139 19.3748C5.97139 19.3748 13.2462 8.40838 21.3345 22.0833Z" fill="#0CDC12"/>
</svg>
