<svg width="86" height="64" viewBox="0 0 86 64" fill="none" xmlns="http://www.w3.org/2000/svg">
<path d="M35.9197 12.3912C39.6127 23.0939 33.9284 34.7645 23.2233 38.4583C33.9284 34.7645 45.6002 40.4462 49.2932 51.1488C45.6012 40.4491 51.2815 28.7819 61.9809 25.0848C51.2783 28.7726 39.6117 23.091 35.9197 12.3912Z" fill="#32D583"/>
<path d="M67.3981 13.9629C68.9737 18.5293 66.5484 23.5088 61.9809 25.0848C66.5484 23.5088 71.5284 25.933 73.1041 30.4994C71.5288 25.9342 73.9524 20.9562 78.5175 19.3788C73.951 20.9522 68.9733 18.5281 67.3981 13.9629Z" fill="#32D583"/>
<path d="M12.1039 33.0423C13.6795 37.6088 11.2542 42.5882 6.68674 44.1643C11.2542 42.5882 16.2342 45.0124 17.8099 49.5789C16.2346 45.0137 18.6582 40.0357 23.2233 38.4582C18.6569 40.0317 13.6791 37.6075 12.1039 33.0423Z" fill="#32D583"/>
</svg>
