<svg width="167" height="42" viewBox="0 0 167 42" fill="none" xmlns="http://www.w3.org/2000/svg">
<g clip-path="url(#clip0_39_172)">
<path d="M13.1801 4.32757C11.5542 2.39414 10.1542 0.430492 9.86814 0.0226575C9.83802 -0.0075525 9.79284 -0.0075525 9.76274 0.0226575C9.4767 0.430492 8.07664 2.39414 6.45074 4.32757C-7.50476 22.1665 8.64872 34.2052 8.64872 34.2052L8.7842 34.2959C8.90462 36.1537 9.20572 38.8273 9.20572 38.8273H9.8079H10.4101C10.4101 38.8273 10.7112 36.1688 10.8316 34.2959L10.9671 34.1901C10.9821 34.2052 27.1357 22.1665 13.1801 4.32757ZM9.8079 33.9333C9.8079 33.9333 9.0853 33.314 8.88958 32.9969V32.9665L9.76274 13.5416C9.76274 13.4812 9.85308 13.4812 9.85308 13.5416L10.7262 32.9665V32.9969C10.5305 33.314 9.8079 33.9333 9.8079 33.9333Z" fill="#3E3E3E"/>
<path d="M40.0383 29.9694L33.307 13.4916L33.2919 13.446H28.0547V14.5537H28.8999C29.1564 14.5537 29.3979 14.6599 29.5791 14.842C29.7601 15.024 29.8507 15.2669 29.8507 15.5247L29.6998 32.1089C29.6998 32.6246 29.2773 33.0495 28.7641 33.0647L27.9038 33.0798V34.1723H33.0052V33.0798L32.4769 33.0647C31.9638 33.0495 31.5411 32.6246 31.5411 32.1089V16.4806L38.8763 34.1723C38.9818 34.4302 39.2233 34.5971 39.495 34.5971C39.7667 34.5971 40.0082 34.4302 40.1138 34.1723L47.2829 16.8751L47.3885 32.1089C47.3885 32.6399 46.9659 33.0647 46.4377 33.0798H45.8943V34.1723H51.871V33.0798H51.056C50.5429 33.0798 50.1202 32.6399 50.1051 32.124L50.0599 15.5399C50.0599 15.0089 50.4824 14.584 50.9957 14.5688L51.871 14.5537V13.446H46.7696L40.0383 29.9694Z" fill="#3E3E3E"/>
<path d="M86.973 32.791C86.8064 32.6239 86.7157 32.396 86.7157 32.1224V23.9756C86.7157 22.4253 86.2618 21.2093 85.3538 20.343C84.4611 19.4766 83.2202 19.0359 81.6768 19.0359C79.5129 19.0359 77.8031 19.9174 76.6076 21.6502C76.5925 21.6805 76.5471 21.6958 76.5017 21.6958C76.4562 21.6958 76.4261 21.6653 76.4261 21.6198L75.8661 19.4462H74.9279L72.522 20.8293V21.5893H73.1424C73.4299 21.5893 73.6719 21.6653 73.8385 21.8174C74.0049 21.9694 74.0957 22.1974 74.0957 22.5164V32.1071C74.0957 32.3807 74.0049 32.6087 73.8385 32.7759C73.6719 32.943 73.4451 33.0343 73.1727 33.0343H72.5673V34.1438H78.1056V33.0343H77.5004C77.228 33.0343 77.001 32.943 76.8346 32.7759C76.6681 32.6087 76.5773 32.3807 76.5773 32.1071V25.7539C76.5773 24.9484 76.7589 24.1428 77.0919 23.3524C77.4398 22.5773 77.9542 21.9238 78.6353 21.4222C79.3162 20.9206 80.1333 20.6774 81.0715 20.6774C82.1307 20.6774 82.9328 21.0117 83.432 21.6805C83.9314 22.3494 84.1887 23.2156 84.1887 24.2492V32.092C84.1887 32.3655 84.0978 32.5934 83.9314 32.7607C83.765 32.9279 83.538 33.019 83.2656 33.019H82.6604V34.1285H88.1986V33.019H87.5934C87.3664 33.0495 87.1545 32.9583 86.973 32.791Z" fill="#3E3E3E"/>
<path d="M137.572 14.6867C136.041 13.8697 134.33 13.446 132.484 13.446H125.28V14.5505H125.985C126.255 14.5505 126.495 14.6564 126.736 14.8985C126.961 15.1254 127.081 15.3827 127.081 15.655V31.935C127.081 32.2072 126.961 32.4645 126.736 32.6914C126.511 32.9183 126.255 33.0393 125.985 33.0393H125.28V34.1439H132.484C134.33 34.1439 136.041 33.7203 137.572 32.9032C139.103 32.0862 140.348 30.8757 141.249 29.3326C142.149 27.7893 142.615 25.9284 142.615 23.8101C142.615 21.6919 142.149 19.8461 141.249 18.2877C140.333 16.7142 139.103 15.5189 137.572 14.6867ZM139.718 23.7799C139.718 25.7165 139.373 27.3505 138.697 28.6668C138.022 29.9832 137.121 30.9665 136.011 31.6021C134.9 32.2376 133.67 32.5553 132.349 32.5553H130.893C130.623 32.5553 130.383 32.4494 130.143 32.2072C129.917 31.9803 129.797 31.7231 129.797 31.4507V16.0939C129.797 15.8215 129.902 15.5794 130.143 15.3373C130.368 15.1103 130.623 14.9893 130.893 14.9893H132.349C133.67 14.9893 134.9 15.307 136.011 15.9425C137.121 16.5779 138.022 17.5614 138.697 18.8776C139.373 20.2091 139.718 21.8583 139.718 23.7799Z" fill="#3E3E3E"/>
<path d="M159.643 24.8844C158.977 24.1127 157.691 23.4621 156.179 23.1141C158.267 22.0701 159.34 20.6025 159.34 18.7113C159.34 17.6825 159.069 16.7595 158.523 15.9727C157.979 15.186 157.208 14.5505 156.225 14.1117C155.24 13.673 154.09 13.446 152.789 13.446H144.635V14.5505H145.285C145.558 14.5505 145.8 14.6564 146.042 14.8985C146.269 15.1254 146.39 15.3827 146.39 15.655V31.935C146.39 32.2072 146.269 32.4645 146.042 32.6914C145.815 32.9183 145.558 33.0393 145.285 33.0393H144.574V34.1439H153.426C154.772 34.1439 156.027 33.917 157.162 33.463C158.297 33.0091 159.205 32.3435 159.856 31.4659C160.521 30.5884 160.854 29.5141 160.854 28.2734C160.839 26.9419 160.445 25.8072 159.643 24.8844ZM149.491 32.2223C149.264 31.9954 149.143 31.7383 149.143 31.4659V24.158H153.35C154.832 24.158 155.967 24.5363 156.754 25.2928C157.541 26.0494 157.934 27.0327 157.934 28.2432C157.934 28.9694 157.752 29.6806 157.42 30.3311C157.072 30.9969 156.556 31.5264 155.861 31.935C155.18 32.3435 154.333 32.5553 153.35 32.5553H150.248C149.976 32.5553 149.733 32.4494 149.491 32.2223ZM149.159 22.5996V16.109C149.159 15.8366 149.264 15.5945 149.506 15.3524C149.734 15.1254 149.991 15.0044 150.263 15.0044H152.26C153.697 15.0044 154.757 15.3676 155.423 16.0635C156.088 16.7746 156.421 17.6825 156.421 18.8021C156.421 19.952 156.103 20.8749 155.483 21.5708C154.862 22.2517 153.924 22.5996 152.684 22.5996H149.159Z" fill="#3E3E3E"/>
<path d="M65.8892 20.001C64.7331 19.3677 63.4419 19.0359 62.0456 19.0359C60.6493 19.0359 59.343 19.3526 58.2019 20.001C57.0458 20.6342 56.1299 21.5539 55.4543 22.715C54.7787 23.876 54.4333 25.2332 54.4333 26.7409C54.4333 28.2487 54.7787 29.6058 55.4543 30.7669C56.1299 31.9279 57.0458 32.8477 58.2019 33.481C59.3581 34.1142 60.6493 34.446 62.0456 34.446C63.4419 34.446 64.7481 34.1293 65.8892 33.481C67.0454 32.8477 67.9613 31.9279 68.6369 30.7669C69.3125 29.6058 69.6578 28.2487 69.6578 26.7409C69.6578 25.2332 69.3125 23.876 68.6369 22.715C67.9613 21.5539 67.0454 20.6342 65.8892 20.001ZM67.0003 26.7409C67.0003 28.5956 66.5499 30.1033 65.6489 31.189C64.7632 32.2747 63.5471 32.8326 62.0456 32.8326C60.5442 32.8326 59.3279 32.2747 58.4422 31.189C57.5412 30.1033 57.0908 28.5956 57.0908 26.7409C57.0908 24.8863 57.5412 23.3785 58.4422 22.2929C59.3279 21.2072 60.5442 20.6493 62.0456 20.6493C63.5471 20.6493 64.7632 21.2072 65.6489 22.2929C66.5499 23.3785 67.0003 24.8863 67.0003 26.7409Z" fill="#3E3E3E"/>
<path d="M119.099 20.001C117.943 19.3677 116.652 19.0359 115.256 19.0359C113.86 19.0359 112.553 19.3526 111.412 20.001C110.256 20.6342 109.34 21.5539 108.664 22.715C107.989 23.876 107.644 25.2332 107.644 26.7409C107.644 28.2487 107.989 29.6058 108.664 30.7669C109.34 31.9279 110.256 32.8477 111.412 33.481C112.568 34.1142 113.86 34.446 115.256 34.446C116.652 34.446 117.958 34.1293 119.099 33.481C120.256 32.8477 121.171 31.9279 121.847 30.7669C122.523 29.6058 122.868 28.2487 122.868 26.7409C122.868 25.2332 122.523 23.876 121.847 22.715C121.171 21.5539 120.241 20.6342 119.099 20.001ZM120.211 26.7409C120.211 28.5956 119.76 30.1033 118.859 31.189C117.973 32.2747 116.757 32.8326 115.256 32.8326C113.754 32.8326 112.538 32.2747 111.652 31.189C110.751 30.1033 110.301 28.5956 110.301 26.7409C110.301 24.8712 110.751 23.3785 111.652 22.2929C112.538 21.2072 113.754 20.6493 115.256 20.6493C116.757 20.6493 117.973 21.2072 118.859 22.2929C119.745 23.3785 120.211 24.8863 120.211 26.7409Z" fill="#3E3E3E"/>
<path d="M97.6408 19.0359C96.431 19.0359 95.3273 19.2933 94.3292 19.8084C93.3312 20.3234 92.545 21.0203 91.9854 21.9139C91.426 22.7925 91.1387 23.7772 91.1387 24.8224C91.1387 25.7615 91.3504 26.6249 91.7889 27.3975C92.2123 28.1398 92.7869 28.7607 93.5127 29.2757L91.3504 32.2145C91.0781 32.578 91.048 33.0627 91.2445 33.4565C91.4562 33.8655 91.8493 34.108 92.303 34.108H92.923C92.3181 34.517 91.8342 35.0016 91.5015 35.5772C91.1084 36.2285 90.9119 36.9102 90.9119 37.607C90.9119 38.9097 91.4865 39.9853 92.6205 40.7881C93.7395 41.5909 95.312 41.9999 97.2929 41.9999C98.6689 41.9999 99.9844 41.7727 101.179 41.3334C102.389 40.8942 103.372 40.2427 104.097 39.3946C104.838 38.5462 105.216 37.5162 105.216 36.3346C105.216 35.0926 104.763 34.2139 103.704 33.3657C102.797 32.6537 101.376 32.2751 99.6064 32.2751H93.5581C93.543 32.2751 93.5278 32.2598 93.5278 32.2598C93.5278 32.2598 93.5127 32.2296 93.5278 32.2145L95.1004 30.0938C95.5238 30.2907 95.9169 30.4118 96.2647 30.4875C96.6275 30.5634 97.0359 30.5936 97.4894 30.5936C98.7597 30.5936 99.9089 30.3362 100.907 29.8211C101.905 29.3061 102.706 28.6093 103.281 27.7155C103.855 26.837 104.143 25.8524 104.143 24.8073C104.143 23.6863 103.598 21.6412 102.116 20.5961C102.116 20.581 102.132 20.581 102.132 20.581L105.383 20.9445V19.4449H100.181C99.3645 19.1874 98.5178 19.0359 97.6408 19.0359ZM99.4552 28.5184C98.8806 28.8213 98.2606 28.9879 97.6408 28.9879C96.6277 28.9879 95.7355 28.6244 94.9794 27.9125C94.2234 27.2005 93.8454 26.1553 93.8454 24.8224C93.8454 23.4894 94.2234 22.4441 94.9794 21.7322C95.7355 21.0203 96.6277 20.6567 97.6408 20.6567C98.2758 20.6567 98.8806 20.8082 99.4552 21.1262C100.03 21.4293 100.499 21.8988 100.877 22.5199C101.239 23.141 101.436 23.9135 101.436 24.8224C101.436 25.7464 101.255 26.5188 100.877 27.1248C100.514 27.7459 100.03 28.2155 99.4552 28.5184ZM95.3574 34.0927H99.4552C100.589 34.0927 101.315 34.32 101.799 34.8048C102.283 35.2894 102.525 35.9407 102.525 36.6982C102.525 37.804 102.086 38.7129 101.209 39.3946C100.332 40.0762 99.1528 40.4246 97.7012 40.4246C96.431 40.4246 95.3725 40.1368 94.6013 39.5914C93.8301 39.0462 93.437 38.213 93.437 37.1527C93.437 36.4861 93.6185 35.865 93.9815 35.3198C94.3443 34.7744 94.7828 34.3805 95.3574 34.0927Z" fill="#3E3E3E"/>
<path d="M163.921 33.8912C163.623 33.7275 163.398 33.4896 163.219 33.2071C163.055 32.9098 162.964 32.5975 162.964 32.2554C162.964 31.9134 163.055 31.5863 163.219 31.3038C163.383 31.0063 163.623 30.7833 163.921 30.6197C164.221 30.4562 164.55 30.3669 164.924 30.3669C165.298 30.3669 165.626 30.4562 165.926 30.6197C166.225 30.7833 166.449 31.0213 166.629 31.3038C166.793 31.6011 166.883 31.9134 166.883 32.2554C166.883 32.5975 166.793 32.9246 166.629 33.2071C166.464 33.5046 166.225 33.7275 165.926 33.8912C165.626 34.0546 165.298 34.1439 164.924 34.1439C164.565 34.1439 164.221 34.0696 163.921 33.8912ZM165.762 33.683C166.015 33.5491 166.196 33.3409 166.345 33.103C166.479 32.8502 166.555 32.5677 166.555 32.2554C166.555 31.9432 166.479 31.6606 166.345 31.4079C166.209 31.1551 166.015 30.9617 165.762 30.8279C165.507 30.694 165.237 30.6197 164.924 30.6197C164.61 30.6197 164.34 30.694 164.086 30.8279C163.832 30.9617 163.651 31.1699 163.502 31.4079C163.368 31.6606 163.293 31.9432 163.293 32.2554C163.293 32.5677 163.368 32.8502 163.502 33.103C163.638 33.3557 163.832 33.5491 164.086 33.683C164.34 33.8168 164.61 33.8912 164.924 33.8912C165.237 33.8912 165.522 33.8168 165.762 33.683ZM164.116 33.1625V33.0287L164.146 33.0139H164.236C164.265 33.0139 164.295 32.9989 164.31 32.9841C164.34 32.9543 164.34 32.9395 164.34 32.9098V31.5268C164.34 31.497 164.325 31.4674 164.31 31.4524C164.28 31.4227 164.265 31.4227 164.236 31.4227H164.146L164.116 31.4079V31.274L164.146 31.2592H164.924C165.148 31.2592 165.313 31.3038 165.447 31.4079C165.582 31.512 165.641 31.6458 165.641 31.8243C165.641 31.9581 165.597 32.0918 165.492 32.1811C165.388 32.2852 165.267 32.3447 165.118 32.3595L165.298 32.4191L165.641 32.9691C165.671 33.0138 165.701 33.0287 165.747 33.0287H165.836L165.851 33.0436V33.1773L165.836 33.1923H165.373L165.343 33.1773L164.863 32.3743H164.744V32.9098C164.744 32.9395 164.759 32.9691 164.774 32.9841C164.805 33.0138 164.82 33.0139 164.848 33.0139H164.939L164.969 33.0287V33.1625L164.939 33.1773H164.146L164.116 33.1625ZM164.878 32.1811C164.999 32.1811 165.103 32.1513 165.163 32.077C165.222 32.0175 165.267 31.9134 165.267 31.7945C165.267 31.6754 165.237 31.5863 165.178 31.512C165.118 31.4376 165.028 31.4079 164.924 31.4079H164.863C164.833 31.4079 164.805 31.4227 164.79 31.4376C164.759 31.4673 164.759 31.4822 164.759 31.512V32.1811H164.878Z" fill="#3E3E3E"/>
</g>
<defs>
<clipPath id="clip0_39_172">
<rect width="166.112" height="42" fill="white" transform="translate(0.770996)"/>
</clipPath>
</defs>
</svg>
