<svg width="187" height="42" viewBox="0 0 187 42" fill="none" xmlns="http://www.w3.org/2000/svg">
<path d="M183.968 31.0102L182.709 35.0002H182.289L181.03 31.0102V35.0002H180.68V30.6602H181.31L182.499 34.4402L183.688 30.6602H184.318V35.0002H183.968V31.0102Z" fill="#A9B5AF"/>
<path d="M180.261 30.6602H178.442H178.092H176.343V31.0102H178.092V35.0002H178.442V31.0102H180.261V30.6602Z" fill="#A9B5AF"/>
<path d="M139.2 34.93H136.682L128.358 9.37996V34.93H126.12V7.20996H130.107L137.871 31.5H137.941L145.705 7.20996H149.623V35H147.454V9.37996L139.2 34.93Z" fill="#A9B5AF"/>
<path d="M36.9335 7.13989V34.9299H39.3118V22.3999H42.6694C43.5787 22.3999 44.4181 22.5399 45.2575 22.8199C47.7057 23.7299 47.9855 26.5999 48.4052 28.4199L49.8042 34.9999H52.2525L50.7136 27.5099C50.2239 25.2699 49.9441 24.2899 49.3146 23.3099C48.4752 22.0499 46.0969 21.3499 46.0969 21.3499C50.0141 20.5799 51.6929 17.9899 51.6929 14.4199C51.6929 11.1299 50.084 7.34989 42.8093 7.34989L36.9335 7.13989ZM39.3118 9.3799H42.4595C48.8249 9.3799 49.1747 12.7399 49.1747 14.2799C49.1747 15.5399 48.9648 20.1599 41.4802 20.1599H39.3118V9.3799Z" fill="#3E3E3E"/>
<path d="M55.1205 20.3701H57.5687C57.7786 19.2501 58.2682 17.2901 61.5559 17.2901C65.8228 17.2901 65.6829 21.0001 65.6829 22.4701V24.1501C65.6829 24.1501 64.2839 24.1501 63.4445 24.2201C60.1569 24.5001 54.8407 25.3401 54.8407 30.3101C54.8407 35.2801 58.9677 35.4201 59.7372 35.4201C60.9263 35.4201 62.0455 35.1401 63.0948 34.6501C64.144 34.0901 64.9834 33.3201 65.6829 32.3401H65.7529V35.0701H67.7115V21.8401C67.7115 19.8801 67.9213 15.3301 61.6958 15.3301C55.4702 15.3301 55.1205 19.4601 55.1205 20.3701ZM65.6829 26.0401C65.6829 26.8101 65.613 27.5101 65.543 28.2801C65.1233 31.0101 62.815 32.9701 60.017 32.9701C58.618 33.1101 57.2889 32.0601 57.219 30.6601C57.219 30.5901 57.219 30.5201 57.219 30.3801C57.219 29.4001 57.6387 27.0201 61.4859 26.2501C62.3253 26.0401 65.6829 26.0401 65.6829 26.0401Z" fill="#3E3E3E"/>
<path d="M70.999 7.13989V27.0899C70.999 28.1399 71.069 35.3499 77.6443 35.3499C79.2531 35.3499 85.0589 34.7899 85.0589 25.5499C85.0589 16.3099 79.9526 15.3299 78.4137 15.3299C75.8955 15.3299 73.7271 17.0099 73.0975 19.3899H73.0276V7.13989H70.999ZM82.6806 25.5499C82.6806 33.3199 78.3438 33.4599 77.7142 33.4599C77.0847 33.4599 73.1675 33.4599 73.1675 25.8999C73.1675 19.5999 76.1753 17.3599 78.2738 17.3599C80.3023 17.2899 82.6806 19.3899 82.6806 25.5499Z" fill="#3E3E3E"/>
<path d="M88.2067 7.13989V27.0899C88.2067 28.1399 88.2067 35.3499 94.8519 35.3499C96.4607 35.3499 102.267 34.7899 102.267 25.5499C102.267 16.3099 97.1602 15.3299 95.6213 15.3299C93.1031 15.3299 90.9347 17.0099 90.3052 19.3899H90.2352V7.13989H88.2067ZM99.8883 25.5499C99.8883 33.3199 95.5514 33.4599 94.9218 33.4599C94.2923 33.4599 90.3751 33.4599 90.3751 25.8999C90.3751 19.5999 93.3829 17.3599 95.4814 17.3599C97.5799 17.3599 99.8883 19.3899 99.8883 25.5499Z" fill="#3E3E3E"/>
<path d="M107.723 15.75V34.93H105.694V15.75H107.723Z" fill="#3E3E3E"/>
<path d="M108.142 7.20996V10.43H105.204V7.20996H108.142Z" fill="#3E3E3E"/>
<path d="M121.713 35.2101C121.013 35.2801 120.384 35.3501 119.684 35.3501C118.355 35.4201 116.956 35.0701 115.907 34.2301C115.067 33.5301 114.648 32.2701 114.648 30.5901V17.7101H111.57V15.8201H114.648V11.4101L116.676 10.0801V15.8201H121.783V17.7101H116.676V30.0301C116.676 30.5901 116.536 33.4601 119.544 33.4601C120.314 33.4601 121.013 33.3201 121.783 33.1101V35.2101H121.713Z" fill="#3E3E3E"/>
<path d="M31.0577 18.2H22.1042C21.4746 18.2 20.985 17.71 20.985 17.08V8.12C20.985 7.49 20.4953 7 19.8658 7H16.5082C15.8786 7 15.389 7.49 15.389 8.12V17.08C15.389 17.71 14.8993 18.2 14.2698 18.2H10.9122C10.2827 18.2 9.79301 17.71 9.79301 17.08V8.12C9.79301 7.49 9.30336 7 8.67381 7H5.31622C4.68667 7 4.19702 7.49 4.19702 8.12V33.81C4.19702 34.44 4.68667 34.93 5.31622 34.93H30.9878C31.6173 34.93 32.107 34.44 32.107 33.81V19.32C32.1769 18.69 31.6873 18.2 31.0577 18.2ZM26.581 27.65C26.581 28.56 25.8115 29.33 24.9022 29.33H22.6638C21.7544 29.33 20.985 28.56 20.985 27.65V25.41C20.985 24.5 21.7544 23.73 22.6638 23.73H24.9022C25.8115 23.73 26.581 24.5 26.581 25.41V27.65Z" fill="#3E3E3E"/>
<path d="M168.019 33.0399C170.608 30.8699 171.937 26.7399 171.937 20.7899C171.937 12.1799 168.719 6.6499 162.633 6.6499C156.967 6.6499 152.98 11.2699 152.98 20.7899C152.98 30.3099 156.338 34.9299 162.493 34.9299H162.773H173.965V32.6199L168.019 33.0399ZM155.638 20.8599C155.638 12.9499 157.877 9.0999 162.633 9.0999C167.39 9.0999 169.348 13.7199 169.348 20.8599C169.348 27.9999 167.6 32.6199 162.563 32.6199C157.527 32.6199 155.638 28.7699 155.638 20.8599Z" fill="#A9B5AF"/>
</svg>
