<svg width="124" height="42" viewBox="0 0 124 42" fill="none" xmlns="http://www.w3.org/2000/svg">
<g clip-path="url(#clip0_39_187)">
<path d="M47.5163 32.3551C44.9078 33.7195 31.3704 39.2876 28.4543 40.8159C25.5381 42.3443 23.9764 42.3008 21.6956 41.2106C19.4149 40.1203 5.05814 34.2813 2.45634 33.0373C1.14541 32.422 0.476562 31.8969 0.476562 31.4053V26.4525C0.476562 26.4525 19.2309 22.3826 22.2574 21.2857C25.284 20.1888 26.3307 20.1621 28.9024 21.1051C31.4741 22.0482 46.8909 24.8306 49.4359 25.7536V30.6362C49.4359 31.1445 48.8506 31.6394 47.5163 32.3517V32.3551Z" fill="#3E3E3E"/>
<path d="M47.5163 27.4258C44.9079 28.7836 31.3705 34.3517 28.4543 35.8532C25.5382 37.3548 23.9764 37.3414 21.6957 36.2545C19.4149 35.1677 5.05818 29.3287 2.45638 28.0947C-0.145419 26.8606 -0.195583 25.9978 2.35605 25.0013C4.90769 24.0047 19.231 18.3964 22.2575 17.2928C25.284 16.1892 26.3307 16.1658 28.9024 17.1122C31.4741 18.0587 44.9547 23.4127 47.4862 24.3458C50.0178 25.2788 50.1349 26.0446 47.5163 27.3991V27.4258Z" fill="#7B7B7B"/>
<path d="M47.5163 24.289C44.9078 25.65 31.3704 31.2148 28.4543 32.7164C25.5381 34.2179 23.9897 34.2045 21.709 33.111C19.4282 32.0174 5.05814 26.2119 2.45634 24.9712C1.14541 24.3491 0.476562 23.8274 0.476562 23.3325V18.3964C0.476562 18.3964 19.2309 14.3132 22.2574 13.2163C25.284 12.1194 26.3307 12.0893 28.9024 13.0457C31.4741 14.0021 46.8909 16.7578 49.4359 17.6875V22.57C49.4359 23.0783 48.8506 23.5867 47.5163 24.289Z" fill="#3E3E3E"/>
<path d="M47.5163 19.3362C44.9078 20.7006 31.3704 26.2654 28.4543 27.767C25.5381 29.2685 23.9764 29.2585 21.6956 28.1683C19.4148 27.0781 5.05813 21.2625 2.45633 20.0184C-0.145471 18.7744 -0.19229 17.9283 2.356 16.9317C4.90429 15.9351 19.2309 10.3135 22.2574 9.24C25.2839 8.16651 26.3307 8.09963 28.9024 9.03266C31.4741 9.9657 44.9546 15.3666 47.4862 16.2729C50.0178 17.1792 50.1348 17.9751 47.5163 19.3262V19.3362Z" fill="#7B7B7B"/>
<path d="M47.5163 15.9184C44.9078 17.2829 31.3704 22.851 28.4543 24.3492C25.5381 25.8474 23.9897 25.8374 21.709 24.7505C19.4282 23.6636 5.05814 17.8414 2.45634 16.6007C1.14541 15.9853 0.476562 15.4603 0.476562 14.9653V10.0126C0.476562 10.0126 19.2309 5.94265 22.2574 4.84909C25.284 3.75553 26.3307 3.72209 28.9024 4.66516C31.4741 5.60823 46.8842 8.39061 49.4292 9.32031V14.2029C49.4359 14.7179 48.8506 15.2195 47.5163 15.9184Z" fill="#3E3E3E"/>
<path d="M47.5163 10.9723C44.9079 12.31 31.3705 17.9115 28.4543 19.3997C25.5382 20.8879 23.9764 20.8845 21.6957 19.801C19.4149 18.7175 5.05818 12.8885 2.45638 11.6512C-0.145419 10.4138 -0.195583 9.55434 2.35605 8.55776C4.90769 7.56119 19.231 1.94291 22.2575 0.852691C25.284 -0.237523 26.3307 -0.270965 28.9024 0.672104C31.4741 1.61517 44.9547 6.97595 47.4862 7.90564C50.0178 8.83533 50.1349 9.60785 47.5163 10.9623V10.9723Z" fill="#7B7B7B"/>
<path d="M25.7254 3.93935L28.9559 2.87923L28.0798 4.97271L31.3671 6.20338L27.13 6.64482L26.1769 8.93226L24.6452 6.38062L19.746 5.93919L23.4045 4.62157L22.3043 2.59497L25.7254 3.93935Z" fill="white"/>
<path d="M25.9295 17.2929L18.0104 14.0055L29.354 12.2632L25.9295 17.2929Z" fill="white"/>
<path d="M14.9503 7.47412C18.2945 7.47412 21.0134 8.52755 21.0134 9.81507C21.0134 11.1026 18.2878 12.156 14.9503 12.156C11.6128 12.156 8.88391 11.1026 8.88391 9.81507C8.88391 8.52755 11.6028 7.47412 14.9503 7.47412Z" fill="white"/>
<path d="M36.3868 6.82886L43.0987 9.48082L36.3935 12.1328L36.3868 6.82886Z" fill="#3E3E3E"/>
<path d="M36.3868 6.82886L36.3935 12.1328L35.6644 12.417L28.9559 9.76508L36.3868 6.82886Z" fill="#535353"/>
<path d="M65.0199 13.8484C65.5988 13.2168 66.3103 12.7211 67.1034 12.397C67.8761 12.0657 68.7043 11.883 69.5446 11.8586C69.8452 11.8313 70.1483 11.8649 70.4356 11.9574C70.7229 12.0499 70.9886 12.1994 71.2168 12.397C71.3859 12.5606 71.5186 12.7581 71.6062 12.9765C71.6938 13.1949 71.7343 13.4293 71.7251 13.6645C71.7284 14.1373 71.5459 14.5924 71.2168 14.9319C71.0578 15.1095 70.8621 15.2502 70.6432 15.3444C70.4243 15.4385 70.1875 15.4838 69.9493 15.477C67.8625 15.661 64.9664 17.7411 64.9664 20.5669V26.9811C64.9529 27.4573 64.7575 27.9101 64.4204 28.2466C64.0832 28.5831 63.63 28.7777 63.1538 28.7903C62.9102 28.7989 62.6677 28.7533 62.4439 28.6567C62.2201 28.5601 62.0205 28.415 61.8596 28.2319C61.6902 28.0668 61.555 27.8698 61.4621 27.6523C61.3691 27.4348 61.3201 27.201 61.3179 26.9644V13.5875C61.3199 13.3509 61.3688 13.1171 61.4618 12.8995C61.5548 12.682 61.69 12.485 61.8596 12.3201C62.2566 12.0337 62.7313 11.875 63.2207 11.8653C63.6971 11.8747 64.1513 12.0678 64.4885 12.4044C64.8257 12.7409 65.0197 13.1948 65.03 13.6711L65.0199 13.8484Z" fill="#535353"/>
<path d="M86.9948 19.7342C86.9969 20.1712 86.8359 20.5934 86.5433 20.918C86.1964 21.24 85.7484 21.4315 85.2759 21.4598H74.5744C74.6755 22.3098 75.0891 23.0917 75.7348 23.6536C76.5621 24.5432 77.6939 25.0888 78.9052 25.1819C79.5185 25.2861 80.1465 25.2677 80.7526 25.1276C81.3588 24.9875 81.9312 24.7286 82.4367 24.3659C82.6143 24.1869 82.8267 24.0462 83.0608 23.9524C83.2949 23.8587 83.5457 23.8139 83.7978 23.8208C84.0143 23.8106 84.2306 23.8458 84.4327 23.9241C84.6349 24.0024 84.8184 24.1222 84.9716 24.2756C85.1145 24.4068 85.2302 24.5649 85.312 24.7408C85.3938 24.9168 85.44 25.1071 85.4481 25.301C85.4562 25.4948 85.4259 25.6884 85.3591 25.8705C85.2922 26.0526 85.1901 26.2198 85.0585 26.3624C85.0318 26.3925 85.0017 26.4193 84.9716 26.4494C84.1819 27.1804 83.256 27.7486 82.2466 28.1216C81.2373 28.4946 80.1643 28.665 79.0891 28.6231C77.9851 28.6471 76.889 28.4331 75.8751 27.9957C74.8612 27.5583 73.9534 26.9077 73.2133 26.0882C71.6796 24.4683 70.8086 22.3325 70.772 20.102C70.7489 18.9915 70.9535 17.8879 71.3734 16.8595C71.7933 15.8311 72.4195 14.8996 73.2133 14.1226C73.9369 13.3343 74.8197 12.7087 75.8033 12.2873C76.7868 11.8658 77.8487 11.6581 78.9185 11.678C79.959 11.6382 80.996 11.8198 81.9611 12.2107C82.9261 12.6015 83.7972 13.1928 84.5168 13.9453C86.0517 15.4159 86.9628 17.4201 87.0617 19.5436V19.7208L86.9948 19.7342ZM78.9353 14.9352C77.8098 14.9544 76.7277 15.3728 75.882 16.1157C75.1616 16.7213 74.6541 17.5417 74.4339 18.4567H83.9416C83.6751 17.5372 83.0984 16.7384 82.3096 16.196C81.3575 15.4285 80.1867 14.9825 78.9654 14.9219" fill="#535353"/>
<path d="M104.034 26.7971C104.021 27.2733 103.826 27.7265 103.49 28.0636C103.153 28.4007 102.7 28.5961 102.224 28.6097C101.807 28.593 101.406 28.4431 101.079 28.182C100.753 27.9208 100.519 27.562 100.412 27.1583C99.0644 28.123 97.4438 28.6315 95.7867 28.6097C94.7046 28.6218 93.6316 28.4111 92.6346 27.9905C91.6375 27.5699 90.7377 26.9485 89.9912 26.165C89.2097 25.3829 88.5972 24.4486 88.1916 23.4201C87.7861 22.3915 87.5961 21.2906 87.6335 20.1856C87.6191 17.964 88.4639 15.8228 89.9912 14.2095C90.7324 13.4122 91.629 12.7752 92.6257 12.3375C93.6224 11.8998 94.6982 11.6708 95.7867 11.6645C97.4127 11.643 99.0014 12.1526 100.311 13.1159V6.78531C100.305 6.54718 100.351 6.31052 100.445 6.09168C100.539 5.87285 100.679 5.67706 100.857 5.51785C101.023 5.34592 101.223 5.20912 101.444 5.1155C101.664 5.02189 101.901 4.97335 102.141 4.97274C102.379 4.96644 102.616 5.01191 102.834 5.10603C103.053 5.20015 103.249 5.34066 103.408 5.51785C103.578 5.68263 103.714 5.87949 103.808 6.09703C103.901 6.31458 103.951 6.54851 103.953 6.78531V26.7971H104.034ZM95.8904 24.9845C96.4929 24.997 97.0904 24.8735 97.6387 24.6234C98.1869 24.3733 98.6718 24.003 99.0574 23.5398C99.9238 22.6421 100.408 21.4432 100.408 20.1956C100.408 18.948 99.9238 17.7491 99.0574 16.8514C98.6593 16.4017 98.1724 16.0394 97.6273 15.7873C97.0822 15.5352 96.4908 15.3988 95.8904 15.3866C95.2855 15.3657 94.6841 15.4859 94.1338 15.7379C93.5835 15.9898 93.0995 16.3665 92.7201 16.838C91.8537 17.7357 91.3695 18.9346 91.3695 20.1822C91.3695 21.4298 91.8537 22.6287 92.7201 23.5265C93.1134 23.9813 93.6003 24.3458 94.1474 24.5951C94.6946 24.8445 95.2891 24.9727 95.8904 24.9712" fill="#535353"/>
<path d="M109.388 6.78528V7.51431C109.396 7.77019 109.35 8.02491 109.254 8.26216C109.158 8.49942 109.013 8.71398 108.829 8.89213C108.665 9.05768 108.466 9.18423 108.247 9.26238C108.028 9.34054 107.793 9.3683 107.562 9.3436C107.325 9.35161 107.088 9.30756 106.87 9.21454C106.652 9.12152 106.456 8.98179 106.298 8.80518C106.118 8.62892 105.976 8.41723 105.883 8.18352C105.789 7.9498 105.744 7.69915 105.753 7.44743V6.77859C105.754 6.54155 105.803 6.30717 105.896 6.08941C105.99 5.87166 106.126 5.67499 106.298 5.51113C106.462 5.341 106.658 5.2052 106.875 5.11161C107.092 5.01803 107.325 4.96854 107.562 4.96602C107.8 4.96232 108.037 5.00964 108.255 5.10481C108.474 5.19998 108.669 5.3408 108.829 5.51782C109.009 5.67581 109.151 5.87113 109.247 6.09008C109.343 6.30903 109.39 6.54631 109.384 6.78528M106.331 12.3133C106.495 12.142 106.692 12.0054 106.909 11.9118C107.127 11.8181 107.361 11.7693 107.599 11.7682C107.837 11.7603 108.074 11.805 108.293 11.8992C108.512 11.9934 108.708 12.1348 108.866 12.3133C109.038 12.4899 109.172 12.6994 109.261 12.9293C109.351 13.1591 109.392 13.4046 109.384 13.6509V26.8974C109.399 27.1375 109.356 27.3775 109.259 27.5979C109.163 27.8182 109.015 28.0125 108.829 28.1648C108.665 28.335 108.469 28.4708 108.252 28.5644C108.035 28.6579 107.801 28.7074 107.565 28.71C107.327 28.7167 107.09 28.6714 106.871 28.5773C106.652 28.4832 106.457 28.3424 106.298 28.1648C106.126 28.001 105.99 27.8043 105.896 27.5866C105.803 27.3688 105.754 27.1344 105.753 26.8974V13.6643C105.746 13.4158 105.791 13.1687 105.885 12.9385C105.979 12.7083 106.119 12.5 106.298 12.3266" fill="#535353"/>
<path d="M122.233 13.5809C122.604 13.8364 122.863 14.224 122.959 14.6644C123.032 15.1249 122.969 15.5967 122.778 16.0221C122.518 16.39 122.131 16.6476 121.691 16.7445C121.219 16.8315 120.732 16.7346 120.33 16.4736C119.063 15.661 118.073 15.2095 117.253 15.2095C116.53 15.1629 115.814 15.387 115.247 15.8382C114.886 16.1124 114.705 16.293 114.705 16.4736C114.68 16.6311 114.712 16.7924 114.795 16.9284C114.898 17.0399 115.021 17.1317 115.156 17.1993C115.895 17.6634 116.735 17.9422 117.604 18.0119C118.731 18.1976 119.826 18.5351 120.862 19.0152C121.775 19.3966 122.538 20.066 123.035 20.9214C123.358 21.4198 123.58 21.9773 123.686 22.5616C123.793 23.1459 123.783 23.7455 123.657 24.3259C123.53 24.9063 123.29 25.456 122.951 25.9433C122.611 26.4305 122.179 26.8458 121.678 27.1651C120.411 28.0705 118.887 28.5464 117.33 28.5228C115.247 28.5228 113.257 27.7102 111.354 26.1819C111.008 25.8769 110.783 25.4581 110.719 25.0014C110.687 24.6626 110.756 24.322 110.916 24.0219C111.077 23.7218 111.322 23.4753 111.621 23.313C111.92 23.1507 112.26 23.0796 112.599 23.1087C112.938 23.1377 113.261 23.2656 113.528 23.4764C114.527 24.4271 115.861 24.9472 117.24 24.9244C118.042 24.9518 118.833 24.7298 119.504 24.289C119.865 23.9279 120.139 23.657 120.139 23.3828C120.139 23.1085 120.139 23.0216 120.049 22.9313C120.049 22.8376 119.865 22.6604 119.594 22.5701C118.768 22.0589 117.84 21.7327 116.875 21.6137C115.8 21.4586 114.759 21.1192 113.799 20.6104C112.919 20.1815 112.169 19.5272 111.625 18.7142C111.268 18.078 111.083 17.3601 111.087 16.6308C111.085 15.8952 111.266 15.1708 111.613 14.5224C111.961 13.874 112.463 13.3218 113.076 12.9154C114.303 12.0792 115.755 11.637 117.24 11.6479C118.765 11.7415 120.41 12.3703 122.219 13.5508" fill="#535353"/>
</g>
<defs>
<clipPath id="clip0_39_187">
<rect width="123.298" height="42" fill="white" transform="translate(0.473267)"/>
</clipPath>
</defs>
</svg>
