<svg width="115" height="42" viewBox="0 0 115 42" fill="none" xmlns="http://www.w3.org/2000/svg">
<g clip-path="url(#clip0_39_183)">
<path fill-rule="evenodd" clip-rule="evenodd" d="M36.0898 3.02441H44.7787L22.8387 40.8324L0.754272 3.02441H9.64086L22.8387 25.7856L36.0898 3.02441Z" fill="#3E3E3E"/>
<path fill-rule="evenodd" clip-rule="evenodd" d="M27.8783 3.01685H36.1422L22.8272 25.8254L9.61902 3.01685H17.7538L22.8272 11.7978L27.8783 3.01685Z" fill="#7B7B7B"/>
<path fill-rule="evenodd" clip-rule="evenodd" d="M49.9635 10.4806C49.9635 10.2017 50.1183 9.96928 50.428 9.78331C50.7377 9.59737 51.0614 9.50439 51.3992 9.50439C51.8684 9.50439 52.1593 9.68104 52.2719 10.0344L57.2264 26.6019L62.1528 10.0344C62.2842 9.68106 62.5657 9.50439 62.9973 9.50439C63.3539 9.50439 63.687 9.60666 63.9967 9.8112C64.3064 10.0157 64.4612 10.2482 64.4612 10.5085C64.4612 10.5271 64.4566 10.555 64.4471 10.5922C64.4377 10.6294 64.433 10.6666 64.433 10.7037L58.7184 29.2517C58.512 29.7909 58.0147 30.0605 57.2265 30.0605C56.4382 30.0605 55.9597 29.7909 55.7908 29.2517L50.0201 10.7037C49.9825 10.5922 49.9638 10.5178 49.9638 10.4806H49.9635ZM64.683 24.7609V17.5093C64.683 17.2861 64.8003 17.0909 65.0349 16.9236C65.2695 16.7562 65.5463 16.6725 65.8654 16.6725C66.1656 16.6725 66.4331 16.7609 66.6677 16.9375C66.9023 17.1142 67.0195 17.3047 67.0195 17.5093V24.7609C67.0195 25.5976 67.3386 26.3507 67.9767 27.0201C68.6148 27.6895 69.3748 28.0242 70.2569 28.0242C71.1202 28.0242 71.8709 27.6942 72.509 27.0341C73.147 26.374 73.4661 25.6162 73.4661 24.7609V17.4809C73.4661 17.2764 73.5834 17.0905 73.818 16.9231C74.0526 16.7558 74.3294 16.6721 74.6484 16.6721C74.9863 16.6721 75.2631 16.7511 75.4789 16.9092C75.6947 17.0672 75.8026 17.2578 75.8026 17.481V24.7609C75.8026 26.1927 75.2537 27.4431 74.1558 28.5123C73.058 29.5815 71.7583 30.1161 70.257 30.1161C68.7368 30.1161 67.4278 29.5815 66.3299 28.5123C65.232 27.4431 64.6831 26.1927 64.6831 24.7609H64.683ZM77.7131 24.7051V21.7765C77.7131 20.3447 78.262 19.1082 79.3599 18.0669C80.4578 17.0256 81.7762 16.505 83.3151 16.505C84.779 16.505 86.0457 16.9931 87.1155 17.9693C88.1852 18.9455 88.7201 20.1681 88.7201 21.6371C88.7201 22.1763 88.6544 22.6086 88.523 22.934C88.3916 23.2595 88.1899 23.4919 87.9178 23.6314C87.6456 23.7708 87.3923 23.8591 87.1577 23.8963C86.9231 23.9335 86.6087 23.9521 86.2146 23.9521H80.0495V24.7889C80.0495 25.8115 80.4201 26.6297 81.1614 27.2433C81.9028 27.857 82.8645 28.1637 84.0469 28.1637C84.6663 28.1637 85.2058 28.0708 85.6656 27.8848C86.1254 27.6989 86.496 27.5176 86.7775 27.341C87.059 27.1643 87.2842 27.076 87.4532 27.076C87.7159 27.076 87.9411 27.1922 88.1288 27.4246C88.3165 27.6571 88.4103 27.8941 88.4103 28.1359C88.4103 28.5635 87.9833 29.0005 87.1294 29.4467C86.2755 29.893 85.2198 30.1161 83.9625 30.1161C82.1233 30.1161 80.6219 29.6187 79.4583 28.6239C78.2948 27.6291 77.713 26.3229 77.713 24.7052L77.7131 24.7051ZM80.0496 22.3901H85.2575C85.7454 22.3901 86.0738 22.3297 86.2428 22.2088C86.4117 22.088 86.4961 21.8509 86.4961 21.4976C86.4961 20.6609 86.1865 19.9264 85.5672 19.2942C84.9479 18.662 84.1878 18.3459 83.2869 18.3459C82.4049 18.3459 81.6448 18.6387 81.0067 19.2244C80.3686 19.8101 80.0496 20.5307 80.0496 21.386L80.0496 22.3901ZM89.899 28.6099C89.899 28.2008 90.0397 27.8521 90.3212 27.5639C90.6027 27.2757 90.9499 27.1316 91.3628 27.1316C91.7569 27.1316 92.0947 27.2757 92.3762 27.5639C92.6577 27.8522 92.7985 28.2008 92.7985 28.6099C92.7985 29.0003 92.6577 29.3397 92.3762 29.6279C92.0947 29.9161 91.7569 30.0602 91.3628 30.0602C90.9499 30.0602 90.6027 29.9161 90.3212 29.6279C90.0397 29.3397 89.899 29.0004 89.899 28.6099ZM91.9786 35.276C91.9786 34.9785 92.0725 34.7322 92.2601 34.5369C92.4478 34.3417 92.673 34.244 92.9358 34.244C93.6677 34.244 94.1462 33.9744 94.3715 33.4352C94.5967 32.896 94.7093 32.0871 94.7093 31.0086V17.4812C94.7093 17.2394 94.8172 17.0442 95.033 16.8955C95.2488 16.7467 95.5257 16.6723 95.8635 16.6723C96.2013 16.6723 96.4828 16.7467 96.708 16.8955C96.9332 17.0442 97.0458 17.2394 97.0458 17.4812V31.0086C97.0458 32.6264 96.7268 33.9093 96.0887 34.8577C95.4506 35.806 94.4841 36.2801 93.1892 36.2801C92.3822 36.2801 91.9787 35.9454 91.9787 35.276L91.9786 35.276ZM94.3996 11.7076C94.3996 11.3543 94.5403 11.0475 94.8218 10.7872C95.1033 10.5269 95.4506 10.3967 95.8634 10.3967C96.2575 10.3967 96.5953 10.5269 96.8768 10.7872C97.1583 11.0475 97.2991 11.3543 97.2991 11.7076C97.2991 12.0609 97.1583 12.3724 96.8768 12.642C96.5953 12.9116 96.2575 13.0464 95.8634 13.0464C95.4693 13.0464 95.1268 12.9116 94.8359 12.642C94.545 12.3724 94.3996 12.0609 94.3996 11.7076H94.3996ZM98.7876 27.9961C98.7876 27.7543 98.8673 27.5173 99.0269 27.2849C99.1864 27.0524 99.3788 26.9362 99.6039 26.9362C99.7541 26.9362 99.9699 27.0478 100.251 27.2709C100.533 27.4941 100.936 27.7125 101.462 27.9264C101.987 28.1402 102.607 28.2471 103.32 28.2471C104.258 28.2471 104.938 28.0798 105.361 27.7451C105.783 27.4104 105.994 26.992 105.994 26.49C105.994 25.8763 105.76 25.3882 105.29 25.0256C104.821 24.663 104.249 24.3888 103.573 24.2028C102.898 24.0169 102.222 23.8124 101.546 23.5892C100.871 23.3661 100.298 22.9942 99.8291 22.4735C99.3599 21.9529 99.1253 21.2649 99.1253 20.4096C99.1253 19.3497 99.5053 18.4339 100.265 17.6623C101.025 16.8906 102.184 16.5048 103.742 16.5048C104.737 16.5048 105.647 16.6582 106.473 16.965C107.298 17.2718 107.711 17.6204 107.711 18.0109C107.711 18.234 107.622 18.485 107.444 18.764C107.266 19.0429 107.045 19.1823 106.782 19.1823C106.707 19.1823 106.346 19.0475 105.698 18.7779C105.051 18.5083 104.408 18.3735 103.77 18.3735C102.907 18.3735 102.264 18.5734 101.842 18.9732C101.42 19.3729 101.208 19.8238 101.208 20.3259C101.208 20.8465 101.443 21.2556 101.912 21.5531C102.381 21.8506 102.958 22.0831 103.643 22.2504C104.328 22.4178 105.009 22.6223 105.684 22.864C106.36 23.1058 106.932 23.5195 107.402 24.1052C107.871 24.6909 108.105 25.4486 108.105 26.3784C108.105 27.5312 107.693 28.4423 106.867 29.1117C106.041 29.7811 104.887 30.1158 103.404 30.1158C102.128 30.1158 101.04 29.888 100.139 29.4325C99.2379 28.9769 98.7875 28.4981 98.7875 27.996L98.7876 27.9961Z" fill="#3E3E3E"/>
</g>
<defs>
<clipPath id="clip0_39_183">
<rect width="113.707" height="42" fill="white" transform="translate(0.765991)"/>
</clipPath>
</defs>
</svg>
