<svg width="17" height="31" viewBox="0 0 17 31" fill="none" xmlns="http://www.w3.org/2000/svg">
<path d="M15.6959 30.2005V6.55625C15.6958 6.30287 15.616 6.05593 15.4679 5.85034C15.3198 5.64476 15.1108 5.49095 14.8704 5.41065L2.80293 1.38814C2.62148 1.32734 2.42816 1.31061 2.23896 1.33936C2.04976 1.3681 1.87013 1.44149 1.71493 1.55345C1.55973 1.66541 1.43342 1.81272 1.34646 1.98319C1.2595 2.15366 1.21438 2.34239 1.21485 2.53375V30.2005" stroke="#A0A3BD" stroke-width="1.6" stroke-linecap="round" stroke-linejoin="round"/>
<path d="M10.8672 22.5806V23.7873" stroke="#A0A3BD" stroke-width="1.6" stroke-linecap="round" stroke-linejoin="round"/>
<path d="M10.8672 16.5469V17.7536" stroke="#A0A3BD" stroke-width="1.6" stroke-linecap="round" stroke-linejoin="round"/>
<path d="M10.8672 10.5132V11.7199" stroke="#A0A3BD" stroke-width="1.6" stroke-linecap="round" stroke-linejoin="round"/>
<path d="M6.04297 22.5806V23.7873" stroke="#A0A3BD" stroke-width="1.6" stroke-linecap="round" stroke-linejoin="round"/>
<path d="M6.04297 16.5469V17.7536" stroke="#A0A3BD" stroke-width="1.6" stroke-linecap="round" stroke-linejoin="round"/>
<path d="M6.04297 10.5132V11.7199" stroke="#A0A3BD" stroke-width="1.6" stroke-linecap="round" stroke-linejoin="round"/>
</svg>
