<svg width="32" height="26" viewBox="0 0 32 26" fill="none" xmlns="http://www.w3.org/2000/svg">
<path d="M26.9742 2.93246C24.9558 2.00637 22.7915 1.32406 20.5285 0.93328C20.4873 0.925738 20.4461 0.944586 20.4249 0.982283C20.1466 1.47736 19.8382 2.12322 19.6223 2.63087C17.1884 2.26648 14.7669 2.26648 12.3828 2.63087C12.1669 2.11194 11.8474 1.47736 11.5677 0.982283C11.5465 0.945844 11.5054 0.926996 11.4641 0.93328C9.20243 1.32282 7.03808 2.00512 5.0185 2.93246C5.00102 2.94 4.98603 2.95258 4.97609 2.9689C0.870773 9.10216 -0.253845 15.0847 0.297855 20.993C0.300351 21.0219 0.316577 21.0495 0.339045 21.0671C3.04761 23.0562 5.67133 24.2638 8.24632 25.0642C8.28753 25.0768 8.33119 25.0617 8.35742 25.0278C8.96653 24.196 9.50951 23.3189 9.97505 22.3965C10.0025 22.3425 9.9763 22.2784 9.92015 22.2571C9.0589 21.9304 8.23883 21.532 7.44997 21.0797C7.38757 21.0433 7.38258 20.954 7.43998 20.9113C7.60598 20.7869 7.77203 20.6575 7.93054 20.5268C7.95922 20.5029 7.99918 20.4979 8.0329 20.513C13.2154 22.8791 18.826 22.8791 23.9473 20.513C23.981 20.4966 24.021 20.5017 24.0509 20.5255C24.2094 20.6562 24.3754 20.7869 24.5427 20.9113C24.6001 20.954 24.5964 21.0433 24.534 21.0797C23.7451 21.5408 22.925 21.9304 22.0625 22.2558C22.0064 22.2772 21.9814 22.3425 22.0089 22.3965C22.4844 23.3176 23.0274 24.1947 23.6253 25.0265C23.6502 25.0617 23.6951 25.0768 23.7364 25.0642C26.3238 24.2638 28.9475 23.0562 31.6561 21.0671C31.6798 21.0495 31.6948 21.0231 31.6973 20.9942C32.3576 14.1636 30.5914 8.23012 27.0153 2.97015C27.0066 2.95258 26.9916 2.94 26.9742 2.93246ZM10.749 17.3954C9.18869 17.3954 7.90307 15.963 7.90307 14.2038C7.90307 12.4446 9.16376 11.0121 10.749 11.0121C12.3466 11.0121 13.6198 12.4572 13.5948 14.2038C13.5948 15.963 12.3341 17.3954 10.749 17.3954ZM21.2712 17.3954C19.7109 17.3954 18.4253 15.963 18.4253 14.2038C18.4253 12.4446 19.686 11.0121 21.2712 11.0121C22.8689 11.0121 24.142 12.4572 24.1171 14.2038C24.1171 15.963 22.8689 17.3954 21.2712 17.3954Z" fill="white"/>
</svg>
