<svg width="67" height="67" viewBox="0 0 67 67" fill="none" xmlns="http://www.w3.org/2000/svg">
<circle opacity="0.15" cx="33.3209" cy="33.3209" r="33.3209" fill="#0CDC12" fill-opacity="0.5"/>
<path d="M50.7256 31.6414C50.7194 30.5442 50.3752 29.4755 49.7399 28.5809C49.1046 27.6863 48.2091 27.0091 47.1753 26.6415C46.9735 26.5686 46.7572 26.5454 46.5446 26.5738C46.332 26.6022 46.1293 26.6815 45.9538 26.8048C45.7784 26.9282 45.6352 27.092 45.5365 27.2825C45.4377 27.4729 45.3864 27.6843 45.3867 27.8988L45.4054 38.1069C45.4059 38.3209 45.4579 38.5317 45.557 38.7215C45.6561 38.9112 45.7994 39.0743 45.9747 39.1971C46.1501 39.3198 46.3524 39.3986 46.5646 39.4268C46.7768 39.4549 46.9926 39.4316 47.1939 39.3588C48.2299 38.9862 49.1253 38.3024 49.7575 37.4011C50.3897 36.4998 50.7279 35.4251 50.7256 34.3242V31.6414Z" fill="#0CDC12" fill-opacity="0.75"/>
<path d="M44.2619 20.2444C44.2619 19.9144 44.1308 19.5978 43.8974 19.3645C43.664 19.1311 43.3475 19 43.0175 19C42.6874 19 42.3709 19.1311 42.1376 19.3645C41.9042 19.5978 41.7731 19.9144 41.7731 20.2444V21.2075L19.1825 28.5009C19.0573 28.5414 18.9482 28.6206 18.8708 28.727C18.7934 28.8335 18.7518 28.9617 18.7519 29.0932V36.5061C18.7519 36.6385 18.7941 36.7674 18.8724 36.8742C18.9508 36.9809 19.0611 37.0599 19.1874 37.0996L20.8051 37.6074C20.9314 37.6471 21.0418 37.7261 21.1201 37.8328C21.1984 37.9396 21.2407 38.0685 21.2407 38.2009V41.4251C21.2489 42.9055 21.8423 44.3224 22.8914 45.3669C23.9405 46.4113 25.3601 46.9984 26.8404 47H26.8666C28.3503 46.9914 29.7702 46.395 30.8149 45.3414C31.8597 44.2877 32.4442 42.8629 32.4402 41.3791V41.2547L41.7731 44.179V45.1322C41.7731 45.4622 41.9042 45.7787 42.1376 46.0121C42.3709 46.2455 42.6874 46.3766 43.0175 46.3766C43.3475 46.3766 43.664 46.2455 43.8974 46.0121C44.1308 45.7787 44.2619 45.4622 44.2619 45.1322V20.2444ZM29.9514 41.3853C29.9534 41.7939 29.8748 42.1988 29.7203 42.577C29.5658 42.9552 29.3383 43.2992 29.0508 43.5895C28.7633 43.8798 28.4214 44.1106 28.0447 44.2687C27.668 44.4269 27.2639 44.5093 26.8554 44.5112H26.8404C26.0188 44.5112 25.2305 44.1862 24.6476 43.6071C24.0648 43.028 23.7347 42.2418 23.7294 41.4202V39.3706C23.7294 39.273 23.7524 39.1766 23.7966 39.0895C23.8407 39.0023 23.9048 38.9268 23.9835 38.869C24.0623 38.8112 24.1536 38.7728 24.2499 38.7568C24.3463 38.7408 24.4451 38.7478 24.5383 38.7771L29.5159 40.3375C29.6422 40.3773 29.7525 40.4562 29.8308 40.563C29.9092 40.6697 29.9514 40.7987 29.9514 40.9311V41.3853Z" fill="#0CDC12" fill-opacity="0.75"/>
<path d="M18.7508 28.5185C18.7508 28.1843 18.6059 27.8639 18.348 27.6276C18.09 27.3913 17.7402 27.2586 17.3754 27.2586C17.0106 27.2586 16.6608 27.3913 16.4028 27.6276C16.1449 27.8639 16 28.1843 16 28.5185L16.0069 37.3376C16.0069 37.5031 16.0425 37.6669 16.1116 37.8198C16.1807 37.9726 16.282 38.1115 16.4097 38.2285C16.5374 38.3455 16.6891 38.4383 16.8559 38.5016C17.0228 38.5649 17.2017 38.5975 17.3823 38.5975H17.3754C17.7345 38.5976 18.0795 38.469 18.3365 38.2393C18.5935 38.0095 18.7422 37.6967 18.7508 37.3679V28.5185Z" fill="white"/>
</svg>
