<svg width="67" height="67" viewBox="0 0 67 67" fill="none" xmlns="http://www.w3.org/2000/svg">
<circle opacity="0.15" cx="33.3209" cy="33.3209" r="33.3209" fill="#0CDC12" fill-opacity="0.5"/>
<circle cx="33.2903" cy="32.8111" r="6.80007" fill="white"/>
<path fill-rule="evenodd" clip-rule="evenodd" d="M46.6438 35.528C47.2161 35.832 47.6575 36.312 47.9682 36.792C48.5732 37.784 48.5242 39 47.9355 40.072L46.7909 41.992C46.1859 43.016 45.0577 43.656 43.8967 43.656C43.3244 43.656 42.6867 43.496 42.1635 43.176C41.7384 42.904 41.2478 42.808 40.7246 42.808C39.1058 42.808 37.7486 44.136 37.6996 45.72C37.6996 47.56 36.1953 49 34.3149 49H32.0911C30.1943 49 28.69 47.56 28.69 45.72C28.6573 44.136 27.3001 42.808 25.6814 42.808C25.1418 42.808 24.6512 42.904 24.2424 43.176C23.7192 43.496 23.0652 43.656 22.5092 43.656C21.3319 43.656 20.2037 43.016 19.5987 41.992L18.4704 40.072C17.8654 39.032 17.8327 37.784 18.4377 36.792C18.6994 36.312 19.1899 35.832 19.7458 35.528C20.2037 35.304 20.498 34.936 20.776 34.504C21.5935 33.128 21.103 31.32 19.7131 30.504C18.0944 29.592 17.5711 27.56 18.5031 25.976L19.5987 24.088C20.547 22.504 22.5746 21.944 24.2097 22.872C25.6323 23.64 27.48 23.128 28.3139 21.768C28.5755 21.32 28.7227 20.84 28.69 20.36C28.6573 19.736 28.8372 19.144 29.1478 18.664C29.7528 17.672 30.8484 17.032 32.042 17H34.3476C35.5576 17 36.6531 17.672 37.2581 18.664C37.5524 19.144 37.7486 19.736 37.6996 20.36C37.6669 20.84 37.814 21.32 38.0757 21.768C38.9096 23.128 40.7573 23.64 42.1962 22.872C43.815 21.944 45.8589 22.504 46.7909 24.088L47.8865 25.976C48.8348 27.56 48.3116 29.592 46.6765 30.504C45.2866 31.32 44.7961 33.128 45.63 34.504C45.8916 34.936 46.1859 35.304 46.6438 35.528ZM28.5764 33.0156C28.5764 35.5276 30.653 37.5276 33.2201 37.5276C35.7873 37.5276 37.8149 35.5276 37.8149 33.0156C37.8149 30.5036 35.7873 28.4876 33.2201 28.4876C30.653 28.4876 28.5764 30.5036 28.5764 33.0156Z" fill="#0CDC12" fill-opacity="0.75"/>
</svg>
