<svg width="32" height="26" viewBox="0 0 32 26" fill="none" xmlns="http://www.w3.org/2000/svg">
<path d="M28.5917 6.54048C28.611 6.81964 28.611 7.09881 28.611 7.38055C28.611 15.9652 22.0757 25.866 10.1256 25.866V25.8608C6.59553 25.866 3.13876 24.8548 0.166992 22.9482C0.680297 23.01 1.19618 23.0408 1.71334 23.0421C4.63879 23.0447 7.48062 22.0631 9.78213 20.2556C7.00205 20.2029 4.56418 18.3902 3.71253 15.7439C4.68639 15.9318 5.68984 15.8932 6.6457 15.632C3.61475 15.0197 1.43417 12.3566 1.43417 9.26395C1.43417 9.23565 1.43417 9.20864 1.43417 9.18162C2.33728 9.68463 3.34845 9.9638 4.38278 9.99467C1.52809 8.08683 0.648135 4.28914 2.37202 1.31995C5.67055 5.37879 10.5373 7.84625 15.7617 8.10741C15.2381 5.85093 15.9534 3.48638 17.6412 1.90015C20.2579 -0.559595 24.3734 -0.43352 26.8331 2.18189C28.2881 1.89501 29.6827 1.36112 30.9589 0.604668C30.4739 2.10856 29.4588 3.38603 28.1029 4.1978C29.3906 4.046 30.6488 3.70122 31.8337 3.17505C30.9614 4.48211 29.8628 5.62065 28.5917 6.54048Z" fill="white"/>
</svg>
