<svg width="67" height="67" viewBox="0 0 67 67" fill="none" xmlns="http://www.w3.org/2000/svg">
<rect x="16.4286" y="18.4733" width="34.0457" height="28.1681" fill="white"/>
<rect x="21.5966" y="26.9302" width="23.7094" height="5.66188" rx="0.680278" fill="#0CDC12" fill-opacity="0.75"/>
<rect x="21.5966" y="35.3633" width="10.8407" height="7.31969" rx="0.680278" fill="#0CDC12" fill-opacity="0.75"/>
<rect x="34.4657" y="35.3633" width="10.8407" height="2.30835" rx="0.680278" fill="#0CDC12" fill-opacity="0.75"/>
<rect x="34.4657" y="40.3751" width="10.8407" height="2.30835" rx="0.680278" fill="#0CDC12" fill-opacity="0.75"/>
<path d="M15 44.3171C15 45.5591 15.4934 46.7502 16.3716 47.6284C17.2498 48.5066 18.4409 49 19.6829 49H47.7805C49.0225 49 50.2136 48.5066 51.0918 47.6284C51.97 46.7502 52.4634 45.5591 52.4634 44.3171V21.6829C52.4634 20.4409 51.97 19.2498 51.0918 18.3716C50.2136 17.4934 49.0225 17 47.7805 17H19.6829C18.4409 17 17.2498 17.4934 16.3716 18.3716C15.4934 19.2498 15 20.4409 15 21.6829V44.3171ZM37.6341 20.9024C37.6269 21.1797 37.5437 21.4496 37.3938 21.6829C37.2635 21.9192 37.0723 22.1162 36.84 22.2534C36.6078 22.3906 36.3429 22.4629 36.0732 22.4629C35.8034 22.4629 35.5386 22.3906 35.3063 22.2534C35.074 22.1162 34.8828 21.9192 34.7526 21.6829C34.6026 21.4496 34.5195 21.1797 34.5122 20.9024C34.5192 20.6252 34.6024 20.3552 34.7526 20.122C34.8828 19.8857 35.074 19.6887 35.3063 19.5515C35.5386 19.4143 35.8034 19.3419 36.0732 19.3419C36.3429 19.3419 36.6078 19.4143 36.84 19.5515C37.0723 19.6887 37.2635 19.8857 37.3938 20.122C37.5439 20.3552 37.6271 20.6252 37.6341 20.9024V20.9024ZM43.0976 20.9024C43.0903 21.1797 43.0071 21.4496 42.8572 21.6829C42.7269 21.9192 42.5357 22.1162 42.3035 22.2534C42.0712 22.3906 41.8064 22.4629 41.5366 22.4629C41.2668 22.4629 41.002 22.3906 40.7697 22.2534C40.5374 22.1162 40.3462 21.9192 40.216 21.6829C40.066 21.4496 39.9829 21.1797 39.9756 20.9024C39.9827 20.6252 40.0658 20.3552 40.216 20.122C40.3462 19.8857 40.5374 19.6887 40.7697 19.5515C41.002 19.4143 41.2668 19.3419 41.5366 19.3419C41.8064 19.3419 42.0712 19.4143 42.3035 19.5515C42.5357 19.6887 42.7269 19.8857 42.8572 20.122C43.0073 20.3552 43.0905 20.6252 43.0976 20.9024V20.9024ZM48.561 20.9024C48.5537 21.1797 48.4705 21.4496 48.3206 21.6829C48.1904 21.9192 47.9991 22.1162 47.7669 22.2534C47.5346 22.3906 47.2698 22.4629 47 22.4629C46.7302 22.4629 46.4654 22.3906 46.2331 22.2534C46.0009 22.1162 45.8096 21.9192 45.6794 21.6829C45.5295 21.4496 45.4463 21.1797 45.439 20.9024C45.4461 20.6252 45.5292 20.3552 45.6794 20.122C45.8117 19.8874 46.0034 19.6918 46.2352 19.5548C46.467 19.4178 46.7308 19.3443 47 19.3415C47.2999 19.3428 47.5931 19.4306 47.8444 19.5942C48.0958 19.7578 48.2947 19.9903 48.4174 20.264C48.5104 20.4641 48.5594 20.6818 48.561 20.9024V20.9024ZM18.122 25.1936C18.122 25.0901 18.1631 24.9908 18.2363 24.9176C18.3094 24.8444 18.4087 24.8033 18.5122 24.8033H48.9512C49.0547 24.8033 49.154 24.8444 49.2272 24.9176C49.3003 24.9908 49.3415 25.0901 49.3415 25.1936V44.3155C49.3415 44.7295 49.177 45.1265 48.8843 45.4193C48.5915 45.712 48.1945 45.8765 47.7805 45.8765H19.6829C19.2689 45.8765 18.8719 45.712 18.5792 45.4193C18.2864 45.1265 18.122 44.7295 18.122 44.3155V25.1936Z" fill="#0CDC12" fill-opacity="0.75"/>
<circle opacity="0.15" cx="33.3209" cy="33.3209" r="33.3209" fill="#0CDC12" fill-opacity="0.5"/>
</svg>
